<svg xmlns="http://www.w3.org/2000/svg" xmlns:xlink="http://www.w3.org/1999/xlink" viewBox="0 0 293.92 41.19"><defs><style>.a{fill:#fff;}.b{fill:url(#a);}</style><linearGradient id="a" x1="8.79" y1="37.47" x2="32.42" y2="3.72" gradientUnits="userSpaceOnUse"><stop offset="0" stop-color="#0f6ef0"/><stop offset="0.49" stop-color="#0098d8"/><stop offset="1" stop-color="#0fd7f0"/></linearGradient></defs><title>New-FDAArtboard 8</title><path class="a" d="M67,10.49H57.36a.12.12,0,0,0-.13.13V17.1a.12.12,0,0,0,.13.14h6.7a.3.3,0,0,1,.34.34v1a.31.31,0,0,1-.34.35h-6.7a.12.12,0,0,0-.13.13v8a.3.3,0,0,1-.34.34H55.7a.31.31,0,0,1-.35-.34V9.19a.31.31,0,0,1,.35-.34H67a.31.31,0,0,1,.35.34v1A.31.31,0,0,1,67,10.49Z"/><path class="a" d="M76.55,14.17a.31.31,0,0,1,.19.42l-.27,1.16c0,.22-.19.29-.42.22a4.07,4.07,0,0,0-1.3-.14,3.17,3.17,0,0,0-2.27,1,3.46,3.46,0,0,0-.9,2.45V27a.31.31,0,0,1-.35.34H70A.3.3,0,0,1,69.7,27V14.33A.31.31,0,0,1,70,14h1.19a.31.31,0,0,1,.35.35v1.48c0,.07,0,.11,0,.12s0,0,.09-.07a4,4,0,0,1,1.42-1.48,3.7,3.7,0,0,1,2-.53A2.91,2.91,0,0,1,76.55,14.17Z"/><path class="a" d="M81,26.61a5.07,5.07,0,0,1-1.89-2.7,11.5,11.5,0,0,1-.37-3.26,12.26,12.26,0,0,1,.34-3.23A5,5,0,0,1,81,14.75a5.57,5.57,0,0,1,3.32-1,5.48,5.48,0,0,1,3.27,1,4.9,4.9,0,0,1,1.87,2.65,11.72,11.72,0,0,1,.37,3.25,11.5,11.5,0,0,1-.37,3.26,5.12,5.12,0,0,1-1.89,2.7,5.43,5.43,0,0,1-3.25,1A5.52,5.52,0,0,1,81,26.61Zm5.46-1.37a3.42,3.42,0,0,0,1.22-1.89,12.19,12.19,0,0,0,.21-2.67A11.68,11.68,0,0,0,87.72,18a3.27,3.27,0,0,0-1.2-1.89,3.56,3.56,0,0,0-2.24-.7,3.4,3.4,0,0,0-2.17.7A3.46,3.46,0,0,0,80.89,18a11.68,11.68,0,0,0-.21,2.68,11.52,11.52,0,0,0,.21,2.67,3.31,3.31,0,0,0,1.21,1.89,3.54,3.54,0,0,0,2.23.7A3.4,3.4,0,0,0,86.5,25.24Z"/><path class="a" d="M102.56,15a4.5,4.5,0,0,1,1.25,3.33V27a.3.3,0,0,1-.34.34h-1.19a.31.31,0,0,1-.35-.34V18.74a3.33,3.33,0,0,0-.87-2.39,3,3,0,0,0-2.28-.91,3.28,3.28,0,0,0-2.23.76,3,3,0,0,0-1,2V27a.31.31,0,0,1-.35.34H94a.3.3,0,0,1-.34-.34V14.33A.31.31,0,0,1,94,14h1.19a.31.31,0,0,1,.35.35v1a.14.14,0,0,0,0,.12s.06,0,.08,0a4.13,4.13,0,0,1,3.55-1.58A4.56,4.56,0,0,1,102.56,15Z"/><path class="a" d="M113.58,15.54h-2.89a.12.12,0,0,0-.13.13V23.4a2.33,2.33,0,0,0,.57,1.79,2.64,2.64,0,0,0,1.79.52h.58a.3.3,0,0,1,.34.34V27a.33.33,0,0,1-.34.37h-.9a4.87,4.87,0,0,1-2.89-.72,3.08,3.08,0,0,1-1-2.64V15.67a.12.12,0,0,0-.14-.13h-1.51a.3.3,0,0,1-.34-.34v-.87a.31.31,0,0,1,.34-.35h1.51c.09,0,.14,0,.14-.13v-3a.3.3,0,0,1,.34-.34h1.14a.3.3,0,0,1,.34.34v3a.12.12,0,0,0,.13.13h2.89a.31.31,0,0,1,.34.35v.87A.3.3,0,0,1,113.58,15.54Z"/><path class="a" d="M126,8.85h1.2a.3.3,0,0,1,.34.34V27a.3.3,0,0,1-.34.34H126a.3.3,0,0,1-.34-.34V26c0-.05,0-.08-.05-.09s-.07,0-.11,0A4,4,0,0,1,124,27.16a4.3,4.3,0,0,1-1.92.42,5,5,0,0,1-3.11-.95A4.83,4.83,0,0,1,117.26,24a11.8,11.8,0,0,1-.37-3.36,12.64,12.64,0,0,1,.31-3.28A4.88,4.88,0,0,1,119,14.74a5,5,0,0,1,3.15-1,4.52,4.52,0,0,1,1.91.41,3.86,3.86,0,0,1,1.45,1.18c0,.05.07.07.11.05a.12.12,0,0,0,.05-.11V9.19A.3.3,0,0,1,126,8.85Zm-.5,13.81a14.24,14.24,0,0,0,.11-2,14.56,14.56,0,0,0-.11-2,4.27,4.27,0,0,0-.37-1.28,3,3,0,0,0-1-1.45,2.86,2.86,0,0,0-1.74-.54,3.15,3.15,0,0,0-1.82.53,3,3,0,0,0-1.12,1.4,4.83,4.83,0,0,0-.46,1.31,10.78,10.78,0,0,0-.14,2,14,14,0,0,0,.1,1.94,4.65,4.65,0,0,0,.37,1.26,2.9,2.9,0,0,0,1.13,1.51,3.31,3.31,0,0,0,1.92.55,2.81,2.81,0,0,0,1.77-.55,3.28,3.28,0,0,0,1.06-1.48A4.74,4.74,0,0,0,125.46,22.66Z"/><path class="a" d="M139,25.43A3.65,3.65,0,0,0,140.34,24a.31.31,0,0,1,.18-.19.27.27,0,0,1,.27,0l.76.42c.22.12.27.27.16.45a4.94,4.94,0,0,1-1.9,2.1,5.68,5.68,0,0,1-3,.78,5.36,5.36,0,0,1-3.12-.87,4.79,4.79,0,0,1-1.83-2.43,10.8,10.8,0,0,1-.5-3.66c0-.75,0-1.36,0-1.81a5.53,5.53,0,0,1,.2-1.26,4.91,4.91,0,0,1,1.81-2.75,5.29,5.29,0,0,1,3.29-1A5.21,5.21,0,0,1,140.3,15,5.67,5.67,0,0,1,142,18.32a16.55,16.55,0,0,1,.16,2.65.31.31,0,0,1-.35.34h-8.47a.12.12,0,0,0-.13.13,8.23,8.23,0,0,0,.16,1.94,3.22,3.22,0,0,0,1.23,1.89A3.85,3.85,0,0,0,137,26,4.16,4.16,0,0,0,139,25.43Zm-4.49-9.35a3.21,3.21,0,0,0-1.11,1.82,9,9,0,0,0-.21,1.8c0,.09,0,.13.13.13h6.8c.09,0,.14,0,.14-.13a13.59,13.59,0,0,0-.16-1.7,3.4,3.4,0,0,0-1.18-1.89,3.49,3.49,0,0,0-2.24-.7A3.39,3.39,0,0,0,134.51,16.08Z"/><path class="a" d="M147.63,27a4.32,4.32,0,0,1-1.78-1.27,2.83,2.83,0,0,1-.62-1.77v-.24a.31.31,0,0,1,.35-.35h1.13a.5.5,0,0,1,.26.07.2.2,0,0,1,.09.17v.24a1.86,1.86,0,0,0,.9,1.52,3.81,3.81,0,0,0,2.27.65,3.73,3.73,0,0,0,2.23-.62,1.9,1.9,0,0,0,.84-1.58,1.46,1.46,0,0,0-.42-1.08,3,3,0,0,0-1-.66c-.41-.16-1-.37-1.83-.61a18.43,18.43,0,0,1-2.43-.85A4.47,4.47,0,0,1,146,19.47a2.8,2.8,0,0,1-.66-1.92,3.21,3.21,0,0,1,1.34-2.7,5.69,5.69,0,0,1,3.51-1,6.52,6.52,0,0,1,2.58.48,4,4,0,0,1,1.73,1.3,3.08,3.08,0,0,1,.61,1.87.31.31,0,0,1-.35.35h-1.08c-.23,0-.35-.07-.35-.19V17.5a1.79,1.79,0,0,0-.86-1.51,4,4,0,0,0-2.31-.61,3.82,3.82,0,0,0-2.17.55,1.69,1.69,0,0,0-.82,1.49,1.53,1.53,0,0,0,.78,1.38,10.57,10.57,0,0,0,2.45.95,21.75,21.75,0,0,1,2.48.82,4.48,4.48,0,0,1,1.65,1.17,2.88,2.88,0,0,1,.68,2,3.28,3.28,0,0,1-1.33,2.75,5.72,5.72,0,0,1-3.59,1A6.78,6.78,0,0,1,147.63,27Z"/><path class="a" d="M158.62,27V9.19a.31.31,0,0,1,.35-.34h1.19a.3.3,0,0,1,.34.34V19.88a.12.12,0,0,0,.06.12s.07,0,.1,0l5.53-5.79a.53.53,0,0,1,.43-.19H168c.19,0,.29.07.29.21a.43.43,0,0,1-.08.21L165,18a.17.17,0,0,0,0,.19l4,8.76a.37.37,0,0,1,.06.15c0,.16-.11.24-.32.24h-1.25a.41.41,0,0,1-.39-.26l-3.36-7.65a.13.13,0,0,0-.08-.07s-.07,0-.11,0l-2.88,3a.38.38,0,0,0-.06.19V27a.3.3,0,0,1-.34.34H159A.31.31,0,0,1,158.62,27Z"/><path class="a" d="M191.2,26.88l-.82-2.72a.17.17,0,0,0-.18-.14h-6.94a.16.16,0,0,0-.18.14l-.82,2.72a.46.46,0,0,1-.48.35h-2.41a.34.34,0,0,1-.3-.14.38.38,0,0,1,0-.34L184.69,9a.46.46,0,0,1,.48-.34h3.09a.46.46,0,0,1,.48.34l5.69,17.71a.35.35,0,0,1,0,.16c0,.21-.13.32-.37.32h-2.41A.46.46,0,0,1,191.2,26.88ZM184,21.62h5.4c.1,0,.15-.07.13-.19l-2.73-9c0-.07,0-.1-.09-.1s-.08,0-.12.1l-2.72,9C183.88,21.55,183.92,21.62,184,21.62Z"/><path class="a" d="M206.88,14.76a4.65,4.65,0,0,1,1.29,3.47V26.8a.38.38,0,0,1-.43.43h-2.22a.37.37,0,0,1-.42-.43V18.86a2.81,2.81,0,0,0-.7-2,2.64,2.64,0,0,0-3.68,0,2.72,2.72,0,0,0-.7,2v8a.38.38,0,0,1-.43.43h-2.22a.37.37,0,0,1-.42-.43V14.13a.37.37,0,0,1,.42-.43h2.22a.38.38,0,0,1,.43.43v.71c0,.07,0,.12,0,.13s.07,0,.1-.05a3.9,3.9,0,0,1,3.26-1.43A4.66,4.66,0,0,1,206.88,14.76Z"/><path class="a" d="M210.42,32.07V30.38c0-.29.06-.43.18-.43h.16a5.4,5.4,0,0,0,1.69-.2,1.9,1.9,0,0,0,1-.75,6,6,0,0,0,.7-1.67.25.25,0,0,0,0-.21l-4.32-12.94a1,1,0,0,1,0-.19c0-.19.12-.29.37-.29h2.38a.46.46,0,0,1,.48.35l2.59,8.76c0,.07.08.1.12.1s.07,0,.09-.1l2.52-8.76a.45.45,0,0,1,.47-.35h2.39a.42.42,0,0,1,.33.12.4.4,0,0,1,0,.36L216.93,28a12.43,12.43,0,0,1-1.3,2.8,3.49,3.49,0,0,1-1.73,1.33,9.73,9.73,0,0,1-3.11.39h-.19Q210.42,32.49,210.42,32.07Z"/><path class="a" d="M226.61,26.88l-3.73-12.7a.27.27,0,0,1,0-.13.3.3,0,0,1,.1-.25.39.39,0,0,1,.29-.1h2.31a.43.43,0,0,1,.45.37l2.17,8.68c0,.08,0,.11.1.11s.09,0,.11-.11l2.25-8.68a.43.43,0,0,1,.47-.37h2a.44.44,0,0,1,.48.37L236,22.78c0,.07,0,.11.1.11s.09,0,.11-.11l2.27-8.71a.45.45,0,0,1,.48-.37l2.28,0a.36.36,0,0,1,.31.13.37.37,0,0,1,.06.35l-3.76,12.67a.46.46,0,0,1-.48.35H235a.46.46,0,0,1-.48-.35L232.23,19c0-.07-.06-.11-.11-.11s-.09,0-.11.11l-2.09,7.89a.43.43,0,0,1-.47.37h-2.36A.46.46,0,0,1,226.61,26.88Z"/><path class="a" d="M253.89,14.76a4.68,4.68,0,0,1,1.28,3.47V26.8a.37.37,0,0,1-.42.43h-2.23a.37.37,0,0,1-.42-.43V18.86a2.76,2.76,0,0,0-.7-2,2.4,2.4,0,0,0-1.84-.75,2.43,2.43,0,0,0-1.84.74,2.72,2.72,0,0,0-.7,2v8a.37.37,0,0,1-.42.43h-2.23a.37.37,0,0,1-.42-.43V9.12a.37.37,0,0,1,.42-.42h2.23a.37.37,0,0,1,.42.42v5.72c0,.07,0,.12,0,.13s.07,0,.11-.05a3.87,3.87,0,0,1,3.25-1.43A4.7,4.7,0,0,1,253.89,14.76Z"/><path class="a" d="M266.11,24.44a3.24,3.24,0,0,0,1.18-1.05.41.41,0,0,1,.35-.21.34.34,0,0,1,.23.08l1.28,1a.54.54,0,0,1,.18.35.52.52,0,0,1-.08.24,5.33,5.33,0,0,1-2.09,1.9,6.49,6.49,0,0,1-3,.69,6,6,0,0,1-3.51-1,5.62,5.62,0,0,1-2.05-2.77A9.6,9.6,0,0,1,258,20.4a10.62,10.62,0,0,1,.29-2.81,5.37,5.37,0,0,1,2-3,5.79,5.79,0,0,1,3.59-1.11c3.3,0,5.24,1.81,5.8,5.43a20.87,20.87,0,0,1,.19,2.17.38.38,0,0,1-.43.42h-8.2a.14.14,0,0,0-.16.16,3.41,3.41,0,0,0,.16,1.16,2.61,2.61,0,0,0,1.11,1.49,3.73,3.73,0,0,0,2,.53A3.91,3.91,0,0,0,266.11,24.44Zm-3.89-7.81a2.44,2.44,0,0,0-.88,1.36,3.42,3.42,0,0,0-.21,1.11c0,.11,0,.16.13.16h5.32a.14.14,0,0,0,.16-.16,9.12,9.12,0,0,0-.16-1,2.6,2.6,0,0,0-.94-1.47,2.82,2.82,0,0,0-1.76-.54A2.68,2.68,0,0,0,262.22,16.63Z"/><path class="a" d="M280.39,13.83a.43.43,0,0,1,.24.53l-.42,2.2a.33.33,0,0,1-.15.27.68.68,0,0,1-.35,0,2.83,2.83,0,0,0-.85-.11,3.25,3.25,0,0,0-.5,0,2.7,2.7,0,0,0-1.86.78,2.53,2.53,0,0,0-.74,1.89V26.8a.37.37,0,0,1-.42.43h-2.22a.38.38,0,0,1-.43-.43V14.13a.38.38,0,0,1,.43-.43h2.22a.37.37,0,0,1,.42.43v1a.14.14,0,0,0,.05.13s.08,0,.11-.08A3.5,3.5,0,0,1,279,13.54,3.37,3.37,0,0,1,280.39,13.83Z"/><path class="a" d="M290.15,24.44a3.29,3.29,0,0,0,1.17-1.05.41.41,0,0,1,.35-.21.35.35,0,0,1,.24.08l1.27,1a.54.54,0,0,1,.18.35.43.43,0,0,1-.08.24,5.33,5.33,0,0,1-2.09,1.9,6.49,6.49,0,0,1-3,.69,6,6,0,0,1-3.51-1,5.62,5.62,0,0,1-2.05-2.77,9.6,9.6,0,0,1-.53-3.28,10.62,10.62,0,0,1,.29-2.81,5.37,5.37,0,0,1,2-3,5.8,5.8,0,0,1,3.6-1.11q4.95,0,5.79,5.43a20.87,20.87,0,0,1,.19,2.17.37.37,0,0,1-.43.42h-8.2a.14.14,0,0,0-.16.16,3.41,3.41,0,0,0,.16,1.16,2.61,2.61,0,0,0,1.11,1.49,3.73,3.73,0,0,0,2,.53A4,4,0,0,0,290.15,24.44Zm-3.89-7.81a2.41,2.41,0,0,0-.89,1.36,3.7,3.7,0,0,0-.21,1.11c0,.11,0,.16.13.16h5.32a.14.14,0,0,0,.16-.16,9.12,9.12,0,0,0-.16-1,2.6,2.6,0,0,0-.94-1.47,2.8,2.8,0,0,0-1.76-.54A2.63,2.63,0,0,0,286.26,16.63Z"/><path class="a" d="M20.6,0A20.6,20.6,0,1,0,41.19,20.6,20.6,20.6,0,0,0,20.6,0ZM18.9,9.23h0a1.79,1.79,0,0,1,1.7-1.49h0A1.79,1.79,0,0,1,22.4,9.23h0a.09.09,0,0,1,0,0,.22.22,0,0,1-.23.22H19.12a.23.23,0,0,1-.21-.14.2.2,0,0,1,0-.09S18.9,9.25,18.9,9.23ZM9.72,21.7a10.8,10.8,0,0,1,9.35-10.43l.16,0a10.36,10.36,0,0,1,2.57,0h.1A10.8,10.8,0,0,1,31.31,21.7s0,.05,0,.08a.43.43,0,0,1,0,0,1,1,0,0,1-1,.91H10.68a1,1,0,0,1-1-.91V21.7ZM32,28.42H9.25a.63.63,0,0,1-.58-.92.22.22,0,0,1,.05-.08l.33-.58L10,25.23h0a.64.64,0,0,1,.56-.33H30.63a.65.65,0,0,1,.54.28l0,.07,1,1.66.29.51.06.1a.6.6,0,0,1,.06.27A.64.64,0,0,1,32,28.42Z"/><circle class="b" cx="20.61" cy="20.6" r="20.6"/><path class="a" d="M32.54,27.51l-.06-.1-.29-.51-1-1.66,0-.07a.65.65,0,0,0-.54-.28H10.57a.64.64,0,0,0-.56.33h0l-.95,1.61-.33.58a.22.22,0,0,0-.05.08.63.63,0,0,0,.58.92H32a.64.64,0,0,0,.64-.64A.6.6,0,0,0,32.54,27.51Z"/><path class="a" d="M31.32,21.7a10.8,10.8,0,0,0-9.41-10.44h-.1a10.36,10.36,0,0,0-2.57,0l-.16,0A10.8,10.8,0,0,0,9.73,21.7v.13a1,1,0,0,0,1,.91H30.36a1,1,0,0,0,1-.91.07.07,0,0,0,0,0S31.32,21.73,31.32,21.7Z"/><path class="a" d="M22.41,9.23h0a1.79,1.79,0,0,0-1.75-1.51h-.05a1.79,1.79,0,0,0-1.7,1.49h0v0a.22.22,0,0,0,0,.09.23.23,0,0,0,.21.14h3.06a.22.22,0,0,0,.23-.22A.09.09,0,0,0,22.41,9.23Z"/></svg>