<svg xmlns="http://www.w3.org/2000/svg" viewBox="0 0 50 50"><defs><style>.a{fill:#0fd7f0;opacity:0.5;}.b{fill:none;stroke:#0098d8;stroke-miterlimit:10;}</style></defs><title>icon-reports-Artboard 9 copy</title><path class="a" d="M9.28,44.44a25,25,0,0,0,31.44,0l3.18-3.08a25,25,0,1,0-37.8,0Z"/><path class="b" d="M35.63,31.9l-4.07-1.77a.77.77,0,0,1-.29-.32H34a4.82,4.82,0,0,0,2.06-.28,1.23,1.23,0,0,0,.52-1.85c-.78-1.1-2.59-4-2.65-6.92,0-.05-.16-5-5.08-5.08a5.89,5.89,0,0,0-2,.36,3.53,3.53,0,0,0-.62-1,5.25,5.25,0,0,0-4.13-1.47A5.24,5.24,0,0,0,18,15a3.76,3.76,0,0,0-.88,2.72V20A1.68,1.68,0,0,0,16.67,21v1.67A1.66,1.66,0,0,0,17.29,24a8.79,8.79,0,0,0,1.46,3V28.4a1.09,1.09,0,0,1-.57,1l-3.72,2a3.76,3.76,0,0,0-2,3.3v1.77h25V34.92A3.35,3.35,0,0,0,35.63,31.9Zm-4.8,3.72H13.33v-.93a2.94,2.94,0,0,1,1.53-2.57l3.71-2a1.92,1.92,0,0,0,1-1.7V26.72l-.09-.11a7.71,7.71,0,0,1-1.42-2.95l0-.16-.14-.09a.82.82,0,0,1-.39-.7V21a.81.81,0,0,1,.28-.61l.14-.13V17.65a2.91,2.91,0,0,1,.67-2.09,4.47,4.47,0,0,1,3.5-1.18,4.5,4.5,0,0,1,3.5,1.17,2.82,2.82,0,0,1,.6,1.2s0,.06,0,.08a.29.29,0,0,0,0,.09s0,.07,0,.1,0,0,0,.06a.76.76,0,0,1,0,.15h0a.62.62,0,0,1,0,.13v.13a1,1,0,0,1,0,.15V20.3l.14.13a.81.81,0,0,1,.28.61v1.67a.83.83,0,0,1-.6.79l-.2.06-.07.21a8.82,8.82,0,0,1-1.18,2.38,5.12,5.12,0,0,1-.35.45l-.1.12v1.72c0,.1,0,.21,0,.31s0,0,0,.06a1.14,1.14,0,0,0,.06.25l0,.05a1.15,1.15,0,0,0,.12.25v0a1.61,1.61,0,0,0,.21.3l.1.12h0a2.06,2.06,0,0,0,.5.36l4,2a2.91,2.91,0,0,1,1.61,2.61Zm5.84,0h-5v-.85a3.74,3.74,0,0,0-2.08-3.36L26.73,30a.71.71,0,0,0-.66-1h-.92a.54.54,0,0,1,0-.11.67.67,0,0,1-.06-.15.86.86,0,0,1,0-.28V27a4.63,4.63,0,0,0,.3-.4,9.45,9.45,0,0,0,1.23-2.41,1.66,1.66,0,0,0,1-1.51V21A1.63,1.63,0,0,0,27.08,20V17.73a3.55,3.55,0,0,0,0-.89,4.87,4.87,0,0,1,1.79-.32c4.1,0,4.25,4.08,4.25,4.25.06,3.16,2,6.22,2.8,7.39a.43.43,0,0,1,.06.35.38.38,0,0,1-.23.25A4.18,4.18,0,0,1,34,29H31.16a.77.77,0,0,0-.66.36.75.75,0,0,0,0,.74,1.72,1.72,0,0,0,.74.81l4.06,1.76a2.53,2.53,0,0,1,1.4,2.27Z"/></svg>