<svg xmlns="http://www.w3.org/2000/svg" viewBox="0 0 50 50"><defs><style>.a{fill:#0f6ef0;opacity:0.5;}.b{fill:#0f46f0;}</style></defs><title>icon-reports-Artboard 2</title><path class="a" d="M9.28,44.44a25,25,0,0,0,31.44,0l3.18-3.08a25,25,0,1,0-37.8,0Z"/><path class="b" d="M20.31,16.21a.58.58,0,0,0,.59-.58.59.59,0,0,0-.59-.59.59.59,0,0,0,0,1.17Z"/><path class="b" d="M24.54,39.77a.57.57,0,0,0,.92,0c.42-.53,10.26-13.23,10.26-18.87A11,11,0,0,0,25,10,11,11,0,0,0,14.28,20.9C14.28,26.54,24.12,39.24,24.54,39.77ZM25,11.17a9.89,9.89,0,0,1,9.55,9.73c0,4.36-6.92,14.07-9.55,17.55-2.65-3.51-9.55-13.2-9.55-17.55A9.89,9.89,0,0,1,25,11.17Z"/><path class="b" d="M25,28.52a7.62,7.62,0,0,0,0-15.24,7.52,7.52,0,0,0-2.91.58A.59.59,0,0,0,22.53,15a6.38,6.38,0,0,1,2.47-.5,6.47,6.47,0,1,1-5.62,3.3.59.59,0,1,0-1-.57A7.62,7.62,0,0,0,25,28.52Z"/><path class="b" d="M22.07,24.41h2.34V25a.59.59,0,0,0,1.18,0v-.59h2.34a.59.59,0,1,0,0-1.17V21.48a2.94,2.94,0,0,0-1.47-2.54,1.69,1.69,0,0,0,.3-1,1.76,1.76,0,1,0-3.22,1,2.91,2.91,0,0,0-1.47,2.53v1.76a.59.59,0,1,0,0,1.17ZM24.41,18a.59.59,0,0,1,1.18,0,.59.59,0,0,1-1.18,0Zm-1.17,3.51a1.76,1.76,0,0,1,3.52,0v1.76H23.24Z"/></svg>