<svg xmlns="http://www.w3.org/2000/svg" viewBox="0 0 100 100"><defs><style>.a,.b{fill:#0098d8;}.a{opacity:0.75;}.b{opacity:0.5;}.c{fill:none;stroke:#0098d8;stroke-linecap:round;stroke-linejoin:round;stroke-width:2px;}</style></defs><path class="a" d="M29.23,50A44.45,44.45,0,0,1,49.78,12.51a37.49,37.49,0,0,0,0,75A44.45,44.45,0,0,1,29.23,50Z"/><path class="a" d="M70.77,50A44.44,44.44,0,0,1,50.24,87.5a37.49,37.49,0,0,0,0-75A44.44,44.44,0,0,1,70.77,50Z"/><path class="b" d="M49.78,12.51a44.47,44.47,0,0,0,0,75h.44a44.47,44.47,0,0,0,0-75h-.44Z"/><line class="c" x1="50" y1="12.5" x2="50" y2="87.5"/><line class="c" x1="23.48" y1="23.48" x2="76.52" y2="76.52"/></svg>