<svg xmlns="http://www.w3.org/2000/svg" viewBox="0 0 100 100"><defs><style>.a,.b{fill:#0098d8;stroke:#0098d8;stroke-miterlimit:10;stroke-width:2px;}.a{opacity:0.5;}</style></defs><path class="a" d="M32.4,61.19a4.27,4.27,0,0,1-1.26-3v-12H16a2.66,2.66,0,0,0-1.92.8,2.75,2.75,0,0,0-.8,2V67.55a2.75,2.75,0,0,0,.8,2,2.66,2.66,0,0,0,1.92.8h2.83a.51.51,0,0,1,.49.5v4a.38.38,0,0,0,.15.34.51.51,0,0,0,.34.15.36.36,0,0,0,.19,0,.65.65,0,0,0,.15-.12l4.71-4.72a.45.45,0,0,1,.34-.15H45.53a2.68,2.68,0,0,0,1.92-.81,2.78,2.78,0,0,0,.79-2V62.45H35.46A4.31,4.31,0,0,1,32.4,61.19Z"/><path class="b" d="M85.5,26a4.34,4.34,0,0,0-3.06-1.25h-47A4.29,4.29,0,0,0,31.14,29V58.14a4.3,4.3,0,0,0,4.32,4.31H67.82a.73.73,0,0,1,.54.24l7.49,7.37a.83.83,0,0,0,.24.18.45.45,0,0,0,.3.06.89.89,0,0,0,.54-.24.58.58,0,0,0,.24-.54V63.29a.79.79,0,0,1,.78-.78h4.49a4.3,4.3,0,0,0,4.32-4.31V29A4.31,4.31,0,0,0,85.5,26Z"/></svg>