<svg xmlns="http://www.w3.org/2000/svg" xmlns:xlink="http://www.w3.org/1999/xlink" viewBox="0 0 2000 1807"><defs><style>.a,.aa,.ac,.ad,.e,.g,.w,.x{fill:none;}.b{clip-path:url(#a);}.c,.p{fill:#0098d8;}.c{opacity:0.4;}.d,.h{fill:#fff;}.ad,.d,.e,.g,.x{stroke:#0f6ef0;}.f,.m{fill:#f2f2f2;}.g{stroke-miterlimit:10;}.i,.k{fill:#00e6cd;}.i,.j,.l,.m,.p,.q,.r,.s,.u{opacity:0.7;}.i,.j,.k,.l,.m,.n,.p,.q,.r,.s,.t,.u{isolation:isolate;}.j,.q{fill:#e6e10a;}.k,.t{opacity:0.7;}.l{fill:#ededed;}.m,.p,.q,.r,.s,.t,.u{stroke:#ededed;}.o{fill:#3d3d3d;}.r{fill:#f5a505;}.s,.t{fill:#e60064;}.u{fill:#a00dff;}.v{clip-path:url(#b);}.w{stroke:#c8c8c8;}.ac,.ad,.w,.x{stroke-linecap:round;}.ac,.w{stroke-linejoin:round;}.ac,.w,.x{stroke-width:2px;}.ai,.aj,.y{fill:#0f6ef0;}.z{clip-path:url(#c);}.aa{stroke:#008fd9;}.ab{fill:#008fd9;}.ac{stroke:#0098d8;}.ae{clip-path:url(#d);}.af{fill:gray;}.ag{fill:url(#e);}.ah,.ai{opacity:0.5;}.aj{opacity:0.3;}.ak{fill:url(#f);}</style><clipPath id="a"><rect class="a" x="0.17" y="0.18" width="2000" height="1807"/></clipPath><clipPath id="b"><rect class="a" x="601.32" y="580.58" width="9" height="5"/></clipPath><clipPath id="c"><rect class="a" x="199.32" y="440.08" width="336.01" height="40"/></clipPath><clipPath id="d"><rect class="a" x="1944.32" y="356.58" width="85" height="17"/></clipPath><linearGradient id="e" x1="-4095.96" y1="5313.61" x2="-4095.39" y2="5314.43" gradientTransform="matrix(40, 0, 0, -40, 164067.43, 212836.45)" gradientUnits="userSpaceOnUse"><stop offset="0" stop-color="#0f6ef0"/><stop offset="0.49" stop-color="#0098d8"/><stop offset="1" stop-color="#0fd7f0"/></linearGradient><linearGradient id="f" x1="1225.66" y1="903.68" x2="1825.5" y2="903.68" gradientUnits="userSpaceOnUse"><stop offset="0" stop-color="#fff" stop-opacity="0"/><stop offset="1" stop-color="#fff"/></linearGradient></defs><g class="b"><circle class="c" cx="618" cy="1189" r="618"/><rect class="a" x="180.32" y="235.58" width="1920" height="1336.6"/><rect class="d" x="180.32" y="235.58" width="1920" height="1336.6" rx="9.98"/><rect class="e" x="201.17" y="611.68" width="335" height="203.5"/><rect class="f" x="1278.32" y="512.71" width="368" height="40"/><path class="e" d="M555.32,1572.18V315.58"/><rect class="g" x="180.32" y="315.58" width="375" height="106"/><rect class="h" x="586.32" y="551.58" width="140" height="60"/><rect class="f" x="586.32" y="611.58" width="140" height="60"/><rect class="h" x="586.32" y="671.58" width="140" height="60"/><rect class="h" x="586.32" y="971.58" width="140" height="60"/><rect class="h" x="586.32" y="731.58" width="140" height="60"/><rect class="h" x="586.32" y="1031.58" width="140" height="60"/><rect class="i" x="586.32" y="851.58" width="140" height="60"/><rect class="j" x="586.32" y="1151.58" width="140" height="60"/><rect class="f" x="586.32" y="791.58" width="140" height="60"/><rect class="f" x="586.32" y="1091.58" width="140" height="60"/><rect class="j" x="586.32" y="911.58" width="140" height="60"/><rect class="i" x="586.32" y="1211.58" width="140" height="60"/><rect class="h" x="726.32" y="671.58" width="1285.5" height="60"/><rect class="h" x="726.32" y="971.58" width="1284.5" height="60"/><rect class="i" x="726.32" y="851.58" width="184" height="60"/><rect class="i" x="1646.32" y="911.58" width="184" height="60"/><rect class="i" x="1278.32" y="911.58" width="184" height="60"/><rect class="i" x="910.32" y="1211.58" width="184" height="60"/><rect class="i" x="1462.32" y="1211.58" width="184" height="60"/><rect class="i" x="1094.32" y="1211.58" width="184" height="60"/><rect class="i" x="1646.32" y="1211.58" width="184" height="60"/><rect class="k" x="1830.32" y="1211.58" width="184" height="60"/><rect class="i" x="1094.32" y="1151.58" width="184" height="60"/><rect class="l" x="1646.32" y="1151.58" width="184" height="60"/><rect class="k" x="1830.32" y="1151.58" width="184" height="60"/><rect class="m" x="726.32" y="1151.58" width="368" height="60"/><g class="n"><g class="n"><path class="o" d="M626.21,587.38l-.39-1.3a.08.08,0,0,0-.08-.07h-3.43a.08.08,0,0,0-.09.07l-.39,1.3a.27.27,0,0,1-.26.2h-1.63a.22.22,0,0,1-.18-.08.2.2,0,0,1,0-.19l3-9.34a.25.25,0,0,1,.26-.19h2.06a.27.27,0,0,1,.27.19l3,9.34a.22.22,0,0,1,0,.09.19.19,0,0,1,0,.13.25.25,0,0,1-.16.05h-1.62A.28.28,0,0,1,626.21,587.38Zm-3.43-2.9h2.48c.06,0,.08,0,.07-.09l-1.26-4.27s0-.06-.05-.06,0,0-.06.06l-1.25,4.27C622.7,584.45,622.73,584.48,622.78,584.48Z"/><path class="o" d="M629.47,587.34V578a.21.21,0,0,1,.24-.24h1.5a.21.21,0,0,1,.24.24v9.32a.21.21,0,0,1-.24.24h-1.5A.21.21,0,0,1,629.47,587.34Z"/><path class="o" d="M633,587.34V578a.21.21,0,0,1,.24-.24h1.5a.21.21,0,0,1,.23.24v9.32a.21.21,0,0,1-.23.24h-1.5A.21.21,0,0,1,633,587.34Z"/><path class="o" d="M645.38,587.38l-.39-1.3a.08.08,0,0,0-.09-.07h-3.43c-.05,0-.07,0-.08.07l-.39,1.3a.28.28,0,0,1-.27.2h-1.62a.23.23,0,0,1-.19-.08.21.21,0,0,1,0-.19l3-9.34a.27.27,0,0,1,.27-.19h2.06a.25.25,0,0,1,.26.19l3,9.34a.2.2,0,0,1,0,.09.16.16,0,0,1-.06.13.25.25,0,0,1-.15.05h-1.63A.26.26,0,0,1,645.38,587.38Zm-3.43-2.9h2.48c.05,0,.07,0,.07-.09l-1.26-4.27s0-.06,0-.06-.05,0-.07.06l-1.24,4.27C641.87,584.45,641.89,584.48,642,584.48Z"/><path class="o" d="M649.66,587.38l-2.17-6.73a.22.22,0,0,1,0-.09.19.19,0,0,1,0-.13.25.25,0,0,1,.16,0h1.65a.27.27,0,0,1,.27.21l1.12,4.2s0,.06,0,.06.05,0,.06-.06l1.12-4.2a.26.26,0,0,1,.26-.21l1.66,0a.21.21,0,0,1,.18.07.21.21,0,0,1,0,.19l-2.15,6.72a.28.28,0,0,1-.28.2h-1.71A.28.28,0,0,1,649.66,587.38Z"/><path class="o" d="M659.28,580.59a2.56,2.56,0,0,1,1.11.86,2,2,0,0,1,.4,1.21v4.68a.21.21,0,0,1-.24.24h-1.49a.21.21,0,0,1-.24-.24V587a.06.06,0,0,0,0-.06s0,0-.07,0a2.48,2.48,0,0,1-1.92.71,2.67,2.67,0,0,1-1.73-.53,1.91,1.91,0,0,1-.66-1.57,2,2,0,0,1,.75-1.67,3.43,3.43,0,0,1,2.16-.6h1.41c.06,0,.09,0,.09-.08v-.3a1,1,0,0,0-.29-.72,1.21,1.21,0,0,0-.83-.26,1.62,1.62,0,0,0-.7.14.79.79,0,0,0-.37.4.26.26,0,0,1-.28.18l-1.55-.2a.38.38,0,0,1-.17-.06.11.11,0,0,1,0-.13,1.79,1.79,0,0,1,.48-1,2.67,2.67,0,0,1,1.09-.72,4.27,4.27,0,0,1,1.51-.26A4,4,0,0,1,659.28,580.59Zm-.88,5.31a1,1,0,0,0,.42-.83v-.49c0-.05,0-.08-.09-.08h-1a1.77,1.77,0,0,0-1,.24.74.74,0,0,0-.37.67.71.71,0,0,0,.27.59,1.13,1.13,0,0,0,.73.22A1.65,1.65,0,0,0,658.4,585.9Z"/><path class="o" d="M662.39,579.37a1.12,1.12,0,0,1-.34-.85,1.13,1.13,0,0,1,.34-.85,1.31,1.31,0,0,1,1.74,0,1.13,1.13,0,0,1,.33.85,1.11,1.11,0,0,1-.33.85,1.31,1.31,0,0,1-1.74,0Zm-.11,8v-6.72c0-.16.07-.24.23-.24H664a.21.21,0,0,1,.24.24v6.72a.21.21,0,0,1-.24.24h-1.5C662.35,587.58,662.28,587.5,662.28,587.34Z"/><path class="o" d="M665.83,587.34V578a.21.21,0,0,1,.24-.24h1.5a.21.21,0,0,1,.24.24v9.32a.21.21,0,0,1-.24.24h-1.5A.21.21,0,0,1,665.83,587.34Z"/><path class="o" d="M673.8,580.59a2.62,2.62,0,0,1,1.11.86,2,2,0,0,1,.4,1.21v4.68a.21.21,0,0,1-.24.24h-1.5c-.16,0-.23-.08-.23-.24V587a.06.06,0,0,0,0-.06s0,0-.07,0a2.48,2.48,0,0,1-1.92.71,2.71,2.71,0,0,1-1.74-.53,1.93,1.93,0,0,1-.65-1.57,2,2,0,0,1,.75-1.67,3.41,3.41,0,0,1,2.16-.6h1.41c.06,0,.09,0,.09-.08v-.3a1,1,0,0,0-.29-.72,1.21,1.21,0,0,0-.83-.26,1.58,1.58,0,0,0-.7.14.79.79,0,0,0-.37.4.26.26,0,0,1-.28.18l-1.55-.2a.38.38,0,0,1-.18-.06.13.13,0,0,1,0-.13,1.86,1.86,0,0,1,.49-1,2.67,2.67,0,0,1,1.09-.72,4.22,4.22,0,0,1,1.5-.26A4,4,0,0,1,673.8,580.59Zm-.88,5.31a1,1,0,0,0,.42-.83v-.49c0-.05,0-.08-.09-.08h-1a1.83,1.83,0,0,0-1,.24.75.75,0,0,0-.36.67.71.71,0,0,0,.27.59,1.09,1.09,0,0,0,.72.22A1.66,1.66,0,0,0,672.92,585.9Z"/><path class="o" d="M683.32,584a5.06,5.06,0,0,1-.24,1.68,2.85,2.85,0,0,1-1,1.49,2.72,2.72,0,0,1-1.69.57,1.88,1.88,0,0,1-1.6-.76s0,0-.06,0,0,0,0,.06v.38a.21.21,0,0,1-.23.24H677a.21.21,0,0,1-.24-.24V578a.21.21,0,0,1,.24-.24h1.5a.21.21,0,0,1,.23.24v2.88a.07.07,0,0,0,0,.07s0,0,.06,0a2,2,0,0,1,1.6-.68,2.66,2.66,0,0,1,1.66.53,2.87,2.87,0,0,1,1,1.43A4.8,4.8,0,0,1,683.32,584Zm-2.07,0a2.91,2.91,0,0,0-.34-1.47,1.09,1.09,0,0,0-1-.53,1.07,1.07,0,0,0-.94.55,3,3,0,0,0-.29,1.44,2.91,2.91,0,0,0,.28,1.39,1,1,0,0,0,.95.6,1.09,1.09,0,0,0,1-.6A2.85,2.85,0,0,0,681.25,584Z"/><path class="o" d="M684.7,579.37a1.15,1.15,0,0,1-.33-.85,1.16,1.16,0,0,1,.33-.85,1.21,1.21,0,0,1,.87-.33,1.18,1.18,0,0,1,.88.33,1.13,1.13,0,0,1,.33.85,1.11,1.11,0,0,1-.33.85,1.18,1.18,0,0,1-.88.33A1.21,1.21,0,0,1,684.7,579.37Zm-.11,8v-6.72a.21.21,0,0,1,.24-.24h1.5a.21.21,0,0,1,.24.24v6.72a.21.21,0,0,1-.24.24h-1.5A.21.21,0,0,1,684.59,587.34Z"/><path class="o" d="M688.15,587.34V578a.21.21,0,0,1,.24-.24h1.49a.21.21,0,0,1,.24.24v9.32a.21.21,0,0,1-.24.24h-1.49A.21.21,0,0,1,688.15,587.34Z"/><path class="o" d="M691.83,579.37a1.15,1.15,0,0,1-.34-.85,1.24,1.24,0,0,1,2.08-.85,1.13,1.13,0,0,1,.33.85,1.11,1.11,0,0,1-.33.85,1.31,1.31,0,0,1-1.74,0Zm-.11,8v-6.72a.21.21,0,0,1,.24-.24h1.49a.21.21,0,0,1,.24.24v6.72a.21.21,0,0,1-.24.24H692A.21.21,0,0,1,691.72,587.34Z"/><path class="o" d="M699.14,582h-1.26a.08.08,0,0,0-.09.09V585a1.08,1.08,0,0,0,.19.68.79.79,0,0,0,.61.21H699a.21.21,0,0,1,.24.24v1.2a.24.24,0,0,1-.24.26l-.77,0a3.1,3.1,0,0,1-1.73-.39,1.64,1.64,0,0,1-.59-1.45v-3.67c0-.06,0-.09-.08-.09h-.72a.21.21,0,0,1-.24-.23v-1.11a.21.21,0,0,1,.24-.24h.72a.07.07,0,0,0,.08-.08v-1.58a.21.21,0,0,1,.24-.24h1.43a.21.21,0,0,1,.23.24v1.58c0,.05,0,.08.09.08h1.26a.21.21,0,0,1,.24.24v1.11A.21.21,0,0,1,699.14,582Z"/><path class="o" d="M700.42,590.13V589q0-.24.09-.24h.08a2.53,2.53,0,0,0,1.24-.22,1.32,1.32,0,0,0,.54-.89.11.11,0,0,0,0-.11l-2.25-6.87a.2.2,0,0,1,0-.09.16.16,0,0,1,.06-.13.25.25,0,0,1,.15,0h1.61a.28.28,0,0,1,.27.2l1.15,4.17s0,.06,0,.06.05,0,.06-.06l1.09-4.16a.25.25,0,0,1,.27-.21h1.61a.22.22,0,0,1,.18.08.18.18,0,0,1,0,.19l-2.39,7.19a6,6,0,0,1-.72,1.54,2.08,2.08,0,0,1-1,.75,5.7,5.7,0,0,1-1.86.23h-.1C700.46,590.36,700.42,590.29,700.42,590.13Z"/></g></g><rect class="f" x="726.32" y="611.58" width="184" height="60"/><rect class="f" x="1278.32" y="611.58" width="184" height="60"/><rect class="f" x="910.32" y="611.58" width="184" height="60"/><rect class="f" x="1462.32" y="611.58" width="184" height="60"/><rect class="f" x="1094.32" y="611.58" width="184" height="60"/><rect class="f" x="1646.32" y="611.58" width="184" height="60"/><rect class="f" x="1830.32" y="611.58" width="184" height="60"/><rect class="f" x="726.32" y="791.58" width="184" height="60"/><rect class="f" x="1278.32" y="791.58" width="184" height="60"/><rect class="f" x="910.32" y="791.58" width="184" height="60"/><rect class="f" x="1462.32" y="791.58" width="184" height="60"/><rect class="f" x="1094.32" y="791.58" width="184" height="60"/><rect class="f" x="1646.32" y="791.58" width="184" height="60"/><rect class="f" x="1830.32" y="791.58" width="184" height="60"/><rect class="f" x="726.32" y="1091.58" width="184" height="60"/><rect class="f" x="1278.32" y="1091.58" width="184" height="60"/><rect class="f" x="910.32" y="1091.58" width="184" height="60"/><rect class="f" x="1462.32" y="1091.58" width="184" height="60"/><rect class="f" x="1646.32" y="1091.58" width="184" height="60"/><rect class="f" x="1830.32" y="1091.58" width="184" height="60"/><rect class="f" x="1094.32" y="1091.58" width="184" height="60"/><rect class="p" x="726.32" y="911.58" width="184" height="60"/><rect class="q" x="910.32" y="912.08" width="368" height="60"/><rect class="r" x="1462.32" y="911.58" width="184" height="60"/><rect class="s" x="910.32" y="851.58" width="184" height="60"/><rect class="q" x="1462.32" y="852.08" width="184" height="60"/><rect class="t" x="1830.32" y="911.58" width="184" height="60"/><rect class="q" x="1094.32" y="852.08" width="368" height="60"/><rect class="u" x="1646.32" y="851.58" width="368" height="60"/><rect class="p" x="726.32" y="1211.58" width="184" height="60"/><rect class="s" x="1278.32" y="1211.58" width="184" height="60"/><rect class="r" x="1278.32" y="1151.58" width="368" height="60"/><g class="n"><g class="n"><path class="o" d="M626.52,637.58v6.47a3.52,3.52,0,0,1-1,2.69,4,4,0,0,1-2.86,1,3.82,3.82,0,0,1-2.81-1,3.66,3.66,0,0,1-1-2.71v-6.44h1.27v6.48a2.59,2.59,0,0,0,.65,1.9,2.64,2.64,0,0,0,2,.67,2.61,2.61,0,0,0,1.91-.66,2.64,2.64,0,0,0,.67-1.92v-6.47Z"/><path class="o" d="M634.09,647.58v-4.8a2,2,0,0,0-.41-1.36,1.62,1.62,0,0,0-1.27-.45,2,2,0,0,0-1.68.64,3.27,3.27,0,0,0-.52,2.08v3.89H629v-7.51h1l.18,1h.07a2.29,2.29,0,0,1,1-.86,3.18,3.18,0,0,1,1.39-.3,2.78,2.78,0,0,1,2,.67,2.85,2.85,0,0,1,.67,2.08v4.89Z"/><path class="o" d="M642.27,647.58l-.24-1.07H642a3.11,3.11,0,0,1-1.12,1,3.54,3.54,0,0,1-1.4.25,2.46,2.46,0,0,1-1.74-.59,2.1,2.1,0,0,1-.63-1.64c0-1.52,1.21-2.32,3.61-2.39l1.27-.05v-.44a1.81,1.81,0,0,0-.37-1.26,1.53,1.53,0,0,0-1.18-.41,3.52,3.52,0,0,0-1.13.18q-.53.18-1,.39l-.38-.92a5.4,5.4,0,0,1,1.24-.47,5.58,5.58,0,0,1,1.33-.17,2.94,2.94,0,0,1,2,.6,2.48,2.48,0,0,1,.66,1.92v5.11Zm-2.54-.86a2.26,2.26,0,0,0,1.62-.55,2.05,2.05,0,0,0,.59-1.59v-.67l-1.1.05a4,4,0,0,0-1.89.41,1.24,1.24,0,0,0-.59,1.14,1.13,1.13,0,0,0,.36.9A1.49,1.49,0,0,0,639.73,646.72Z"/><path class="o" d="M650.37,645.51a1.92,1.92,0,0,1-.78,1.63,3.72,3.72,0,0,1-2.21.58,4.91,4.91,0,0,1-2.36-.48v-1.12a5.48,5.48,0,0,0,2.39.6,2.36,2.36,0,0,0,1.35-.3.94.94,0,0,0,.42-.8.93.93,0,0,0-.4-.76,7,7,0,0,0-1.45-.7,8.58,8.58,0,0,1-1.49-.7,1.85,1.85,0,0,1-.63-.65,1.74,1.74,0,0,1-.2-.88,1.69,1.69,0,0,1,.75-1.46,3.47,3.47,0,0,1,2.06-.53,5.7,5.7,0,0,1,2.4.5l-.42,1a5.39,5.39,0,0,0-2.06-.48,2.26,2.26,0,0,0-1.16.24.77.77,0,0,0-.4.67.84.84,0,0,0,.35.68,7,7,0,0,0,1.59.75,7,7,0,0,1,1.38.65,2,2,0,0,1,.66.67A1.88,1.88,0,0,1,650.37,645.51Z"/><path class="o" d="M657.08,645.51a1.9,1.9,0,0,1-.79,1.63,3.69,3.69,0,0,1-2.2.58,4.91,4.91,0,0,1-2.36-.48v-1.12a5.44,5.44,0,0,0,2.38.6,2.42,2.42,0,0,0,1.36-.3.94.94,0,0,0,0-1.56,6.85,6.85,0,0,0-1.44-.7,7.9,7.9,0,0,1-1.49-.7,2,2,0,0,1-.64-.65,1.84,1.84,0,0,1-.2-.88,1.67,1.67,0,0,1,.76-1.46,3.45,3.45,0,0,1,2.06-.53,5.66,5.66,0,0,1,2.39.5l-.41,1a5.43,5.43,0,0,0-2.06-.48,2.26,2.26,0,0,0-1.16.24.75.75,0,0,0-.4.67.83.83,0,0,0,.34.68,7.47,7.47,0,0,0,1.59.75,6.83,6.83,0,0,1,1.39.65,2,2,0,0,1,.66.67A1.88,1.88,0,0,1,657.08,645.51Z"/><path class="o" d="M658.8,638a.74.74,0,0,1,.21-.59.73.73,0,0,1,.52-.19.71.71,0,0,1,.5.19.74.74,0,0,1,.21.59.78.78,0,0,1-.21.6.76.76,0,0,1-.5.19.77.77,0,0,1-.52-.19A.78.78,0,0,1,658.8,638Zm1.33,9.54H658.9v-7.51h1.23Z"/><path class="o" d="M667.52,647.51l0-.92h-.06a2.6,2.6,0,0,1-2.32,1.13,2.74,2.74,0,0,1-2.27-1,4.43,4.43,0,0,1-.82-2.86,4.5,4.5,0,0,1,.82-2.86,3,3,0,0,1,4.61.09h.07l.17-1h1v7.63a3.3,3.3,0,0,1-.81,2.43,3.49,3.49,0,0,1-2.54.81,6.56,6.56,0,0,1-2.7-.48v-1.13a5.83,5.83,0,0,0,2.77.59,2.05,2.05,0,0,0,1.51-.56,2.13,2.13,0,0,0,.56-1.56Zm-2.16-.8a2.06,2.06,0,0,0,1.66-.61,3.06,3.06,0,0,0,.51-2v-.29a3.64,3.64,0,0,0-.52-2.19,2,2,0,0,0-1.67-.68,1.66,1.66,0,0,0-1.46.75,3.68,3.68,0,0,0-.52,2.13,3.81,3.81,0,0,0,.5,2.13A1.7,1.7,0,0,0,665.36,646.71Z"/><path class="o" d="M676.23,647.58v-4.8a2,2,0,0,0-.4-1.36,1.65,1.65,0,0,0-1.28-.45,2,2,0,0,0-1.68.64,3.34,3.34,0,0,0-.52,2.08v3.89h-1.23v-7.51h1l.19,1h.06a2.34,2.34,0,0,1,1-.86,3.18,3.18,0,0,1,1.39-.3,2.78,2.78,0,0,1,2,.67,2.81,2.81,0,0,1,.67,2.08v4.89Z"/><path class="o" d="M683,647.72a3.46,3.46,0,0,1-2.65-1,3.94,3.94,0,0,1-1-2.81,4.36,4.36,0,0,1,.89-2.87,3,3,0,0,1,2.42-1.07,2.91,2.91,0,0,1,2.26.91,3.51,3.51,0,0,1,.84,2.47v.74h-5.14a2.89,2.89,0,0,0,.65,2,2.26,2.26,0,0,0,1.74.66,6,6,0,0,0,1.14-.11,6.8,6.8,0,0,0,1.27-.41v1.08a6.58,6.58,0,0,1-1.17.38A6.9,6.9,0,0,1,683,647.72Zm-.31-6.78a1.77,1.77,0,0,0-1.39.57,2.58,2.58,0,0,0-.61,1.58h3.82a2.39,2.39,0,0,0-.49-1.6A1.64,1.64,0,0,0,682.66,640.94Z"/><path class="o" d="M690.33,647.72a2.73,2.73,0,0,1-2.27-1,4.47,4.47,0,0,1-.81-2.86,4.54,4.54,0,0,1,.81-2.87,3,3,0,0,1,4.61.07h.09c0-.09,0-.27-.06-.55s0-.46,0-.55v-3h1.23v10.64h-1l-.19-1h-.05A2.68,2.68,0,0,1,690.33,647.72Zm.2-1a2,2,0,0,0,1.63-.62,3,3,0,0,0,.52-2v-.23a3.66,3.66,0,0,0-.52-2.23,2,2,0,0,0-1.65-.67,1.7,1.7,0,0,0-1.47.76,3.83,3.83,0,0,0-.51,2.16A3.63,3.63,0,0,0,689,646,1.73,1.73,0,0,0,690.53,646.7Z"/></g></g><g class="v"><path class="w" d="M602.32,581.58l3.5,3,3.5-3"/></g><line class="x" x1="2010.82" y1="552.08" x2="585.82" y2="552.08"/><g class="n"><g class="n"><path class="y" d="M598,359.78h.69a.16.16,0,0,1,.18.18v9.44a.16.16,0,0,1-.18.18H598c-.13,0-.19-.06-.19-.18v-8.53s0-.05,0-.06h-.06l-1.47.62h-.08c-.09,0-.13-.05-.13-.15v-.43a.21.21,0,0,1,.13-.21l1.52-.82A.6.6,0,0,1,598,359.78Z"/><path class="y" d="M604.26,369.4V360a.16.16,0,0,1,.18-.18h3.26a3.16,3.16,0,0,1,2.2.73,2.48,2.48,0,0,1,.82,2v4.4a2.49,2.49,0,0,1-.82,2,3.16,3.16,0,0,1-2.2.73h-3.26A.16.16,0,0,1,604.26,369.4Zm1.06-.69h2.42a2,2,0,0,0,1.45-.53,1.92,1.92,0,0,0,.54-1.43v-4.13a1.83,1.83,0,0,0-2-2h-2.42c-.05,0-.07,0-.07.07v7.92C605.25,368.69,605.27,368.71,605.32,368.71Z"/><path class="y" d="M618.23,369.42l-.56-1.7s0-.06-.07-.06h-4.17a.07.07,0,0,0-.07.06l-.55,1.7a.19.19,0,0,1-.2.16h-.67a.17.17,0,0,1-.14-.06.15.15,0,0,1,0-.15l3.08-9.44a.18.18,0,0,1,.19-.15h.9a.19.19,0,0,1,.2.15l3.09,9.44a.15.15,0,0,1,0,.07.13.13,0,0,1,0,.1.28.28,0,0,1-.12,0h-.68A.18.18,0,0,1,618.23,369.42Zm-4.51-2.57h3.6s.07,0,0-.09L615.55,361s0-.06,0-.06,0,0,0,.06l-1.81,5.72Q613.65,366.85,613.72,366.85Z"/><path class="y" d="M622.23,369.38v-4.1a.16.16,0,0,0,0-.08l-2.87-5.2c0-.05,0-.09,0-.1a.12.12,0,0,1,0-.09.18.18,0,0,1,.11,0h.67a.21.21,0,0,1,.21.12l2.34,4.23s.06,0,.08,0l2.36-4.23a.21.21,0,0,1,.21-.12H626a.18.18,0,0,1,.15.06.17.17,0,0,1,0,.16l-2.87,5.2a.13.13,0,0,0,0,.08v4.1c0,.12-.06.18-.19.18h-.63A.16.16,0,0,1,622.23,369.38Z"/><path class="y" d="M633.05,369.42,630,360a.14.14,0,0,1,0-.07.14.14,0,0,1,0-.1.16.16,0,0,1,.12,0h.67a.19.19,0,0,1,.2.15l2.55,8.14s0,.05,0,.05,0,0,0-.05l2.55-8.14a.18.18,0,0,1,.19-.15h.66a.18.18,0,0,1,.14.05.21.21,0,0,1,0,.16l-3.07,9.43a.19.19,0,0,1-.2.16h-.71A.19.19,0,0,1,633.05,369.42Z"/><path class="y" d="M639.06,369.4V360a.16.16,0,0,1,.18-.18h.63a.16.16,0,0,1,.18.18v9.44a.16.16,0,0,1-.18.18h-.63A.16.16,0,0,1,639.06,369.4Z"/><path class="y" d="M648.85,360.65h-5.1s-.07,0-.07.07v3.43a.06.06,0,0,0,.07.07h3.56a.16.16,0,0,1,.18.18v.5a.16.16,0,0,1-.18.18h-3.56a.06.06,0,0,0-.07.07v3.49c0,.05,0,.07.07.07h5.1a.16.16,0,0,1,.18.18v.51a.16.16,0,0,1-.18.18h-6a.16.16,0,0,1-.18-.18V360a.16.16,0,0,1,.18-.18h6a.16.16,0,0,1,.18.18v.5C649,360.59,649,360.65,648.85,360.65Z"/><path class="y" d="M653.06,369.42,650.4,360v-.06c0-.1.05-.15.16-.15h.69a.19.19,0,0,1,.2.15l2.1,7.59s0,0,0,0,0,0,0,0l2-7.59a.2.2,0,0,1,.21-.15h.67a.19.19,0,0,1,.2.15l2,7.6s0,.05,0,.05,0,0,0-.05l2.1-7.6a.18.18,0,0,1,.19-.15h.65a.2.2,0,0,1,.14.05.21.21,0,0,1,0,.16l-2.62,9.43a.18.18,0,0,1-.19.16h-.68a.2.2,0,0,1-.21-.16l-2-7.78s0,0,0,0a.05.05,0,0,0,0,0l-2,7.78a.2.2,0,0,1-.21.16h-.63A.19.19,0,0,1,653.06,369.42Z"/></g></g><g class="n"><g class="n"><path class="y" d="M708.62,366.58a4.24,4.24,0,0,1-.21,1.35,2.49,2.49,0,0,1-.94,1.31,2.86,2.86,0,0,1-1.65.45,2.74,2.74,0,0,1-1.69-.52,2.52,2.52,0,0,1-1-1.37,4.2,4.2,0,0,1-.16-1c0-.12.06-.18.19-.18h.64a.16.16,0,0,1,.18.18,4.17,4.17,0,0,0,.09.71,1.75,1.75,0,0,0,.6,1,1.71,1.71,0,0,0,1.1.36,1.68,1.68,0,0,0,1-.29,1.59,1.59,0,0,0,.59-.81,3.13,3.13,0,0,0,.2-1.17,3.26,3.26,0,0,0-.25-1.37,1.53,1.53,0,0,0-1.57-1,1.2,1.2,0,0,0-.45.09l-.1,0a.17.17,0,0,1-.14-.09l-.3-.36a.28.28,0,0,1-.06-.13.22.22,0,0,1,.06-.12l2.43-2.86c0-.06,0-.08,0-.08h-3.92c-.12,0-.18-.06-.18-.19V360a.16.16,0,0,1,.18-.18h5.1a.16.16,0,0,1,.18.18v.56a.35.35,0,0,1-.09.22l-2.25,2.71s0,0,0,.05,0,0,.07,0a2.19,2.19,0,0,1,2.05,1.41A4.3,4.3,0,0,1,708.62,366.58Z"/><path class="y" d="M713.66,369.4V360a.17.17,0,0,1,.19-.18h3.26a3.16,3.16,0,0,1,2.2.73,2.48,2.48,0,0,1,.82,2v4.4a2.49,2.49,0,0,1-.82,2,3.16,3.16,0,0,1-2.2.73h-3.26A.17.17,0,0,1,713.66,369.4Zm1.07-.69h2.42a2,2,0,0,0,1.45-.53,1.92,1.92,0,0,0,.54-1.43v-4.13a1.83,1.83,0,0,0-2-2h-2.42c-.05,0-.07,0-.07.07v7.92C714.66,368.69,714.68,368.71,714.73,368.71Z"/><path class="y" d="M727.64,369.42l-.56-1.7a.1.1,0,0,0-.07-.06h-4.18a.1.1,0,0,0-.07.06l-.54,1.7a.19.19,0,0,1-.2.16h-.67a.16.16,0,0,1-.14-.06.15.15,0,0,1,0-.15l3.08-9.44a.18.18,0,0,1,.19-.15h.9a.19.19,0,0,1,.2.15l3.09,9.44a.15.15,0,0,1,0,.07.11.11,0,0,1,0,.1.21.21,0,0,1-.12,0h-.67A.18.18,0,0,1,727.64,369.42Zm-4.51-2.57h3.6s.07,0,0-.09L725,361s0-.06,0-.06,0,0,0,.06l-1.81,5.72Q723.05,366.85,723.13,366.85Z"/><path class="y" d="M731.64,369.38v-4.1a.16.16,0,0,0,0-.08l-2.87-5.2a.43.43,0,0,1,0-.1.14.14,0,0,1,0-.09.16.16,0,0,1,.11,0h.67a.21.21,0,0,1,.21.12l2.34,4.23s0,0,.08,0l2.35-4.23a.24.24,0,0,1,.21-.12h.68c.07,0,.12,0,.14.06a.14.14,0,0,1,0,.16l-2.87,5.2a.16.16,0,0,0,0,.08v4.1a.16.16,0,0,1-.18.18h-.63A.16.16,0,0,1,731.64,369.38Z"/><path class="y" d="M742.46,369.42l-3-9.43a.15.15,0,0,1,0-.07.14.14,0,0,1,.05-.1.16.16,0,0,1,.12,0h.67a.19.19,0,0,1,.2.15l2.54,8.14s0,.05,0,.05,0,0,0-.05l2.55-8.14a.18.18,0,0,1,.19-.15h.66a.18.18,0,0,1,.14.05.17.17,0,0,1,0,.16l-3.06,9.43a.19.19,0,0,1-.2.16h-.71A.19.19,0,0,1,742.46,369.42Z"/><path class="y" d="M748.47,369.4V360a.16.16,0,0,1,.18-.18h.63a.16.16,0,0,1,.18.18v9.44a.16.16,0,0,1-.18.18h-.63A.16.16,0,0,1,748.47,369.4Z"/><path class="y" d="M758.25,360.65h-5.09s-.07,0-.07.07v3.43a.06.06,0,0,0,.07.07h3.55a.17.17,0,0,1,.19.18v.5a.17.17,0,0,1-.19.18h-3.55a.06.06,0,0,0-.07.07v3.49c0,.05,0,.07.07.07h5.09a.17.17,0,0,1,.19.18v.51a.17.17,0,0,1-.19.18h-6c-.13,0-.19-.06-.19-.18V360c0-.12.06-.18.19-.18h6a.17.17,0,0,1,.19.18v.5A.17.17,0,0,1,758.25,360.65Z"/><path class="y" d="M762.47,369.42,759.81,360l0-.06c0-.1.06-.15.17-.15h.69a.18.18,0,0,1,.19.15l2.1,7.59s0,0,0,0a.05.05,0,0,0,0,0l2-7.59a.2.2,0,0,1,.21-.15h.67a.19.19,0,0,1,.2.15l2,7.6s0,.05,0,.05,0,0,0-.05l2.1-7.6a.19.19,0,0,1,.2-.15h.64a.18.18,0,0,1,.14.05.17.17,0,0,1,0,.16l-2.62,9.43a.19.19,0,0,1-.2.16h-.67a.2.2,0,0,1-.21-.16l-2-7.78a0,0,0,0,0,0,0s0,0,0,0l-2,7.78a.19.19,0,0,1-.21.16h-.63A.18.18,0,0,1,762.47,369.42Z"/></g></g><g class="n"><g class="n"><path class="y" d="M813.1,369.33l3-8.05c0-.07,0-.1,0-.1h-3c-.06,0-.09,0-.09.08v.56c0,.15-.07.23-.22.23h-.9c-.15,0-.22-.08-.22-.23V360a.19.19,0,0,1,.22-.22h5.78c.15,0,.23.07.23.22v1a1.18,1.18,0,0,1-.06.26l-3.05,8.1a.27.27,0,0,1-.27.18h-1.26C813.11,369.58,813.05,369.49,813.1,369.33Z"/><path class="y" d="M822,369.35V360a.19.19,0,0,1,.22-.22h3.36a4,4,0,0,1,1.75.35,2.62,2.62,0,0,1,1.17,1,2.73,2.73,0,0,1,.41,1.52v4.06a2.75,2.75,0,0,1-.41,1.52,2.68,2.68,0,0,1-1.17,1,4.14,4.14,0,0,1-1.75.35H822.2C822.05,369.58,822,369.5,822,369.35Zm1.71-1.17h1.94a1.57,1.57,0,0,0,1.19-.47,1.82,1.82,0,0,0,.45-1.25v-3.55a1.74,1.74,0,0,0-.45-1.26,1.56,1.56,0,0,0-1.2-.47h-1.93c-.06,0-.09,0-.09.08v6.83A.08.08,0,0,0,823.69,368.18Z"/><path class="y" d="M836.05,369.4l-.44-1.45a.09.09,0,0,0-.09-.07h-3.67a.09.09,0,0,0-.1.07l-.43,1.45a.25.25,0,0,1-.26.18h-1.27a.2.2,0,0,1-.16-.07.22.22,0,0,1,0-.18l3-9.37a.25.25,0,0,1,.26-.18h1.63a.25.25,0,0,1,.26.18l3,9.37s0,0,0,.08-.07.17-.2.17H836.3A.23.23,0,0,1,836.05,369.4Zm-3.8-2.79h2.86c.06,0,.08,0,.07-.1l-1.44-4.76s0-.05,0-.05,0,0-.06.05l-1.45,4.76C832.17,366.58,832.2,366.61,832.25,366.61Z"/><path class="y" d="M840.44,369.34v-3.68a.2.2,0,0,0,0-.1L837.59,360a.21.21,0,0,1,0-.12c0-.1.06-.14.19-.14H839a.26.26,0,0,1,.26.17l1.92,3.85s0,0,.06,0,0,0,0,0l1.93-3.85a.28.28,0,0,1,.27-.17h1.29c.13,0,.19,0,.19.14a.21.21,0,0,1,0,.12l-2.85,5.52a.65.65,0,0,0,0,.1v3.68c0,.15-.08.22-.23.22h-1.17C840.52,369.56,840.44,369.49,840.44,369.34Z"/><path class="y" d="M851.62,369.4l-2.9-9.37a.19.19,0,0,1,0-.08c0-.12.07-.17.2-.17h1.27a.24.24,0,0,1,.26.18l2.07,7.24s0,.05.06.05,0,0,.05-.05l2.06-7.23a.23.23,0,0,1,.25-.19h1.25a.19.19,0,0,1,.16.07.21.21,0,0,1,0,.18l-2.94,9.37a.24.24,0,0,1-.25.18h-1.29A.23.23,0,0,1,851.62,369.4Z"/><path class="y" d="M857.82,369.35V360a.19.19,0,0,1,.22-.22h1.18a.19.19,0,0,1,.22.22v9.35c0,.15-.07.23-.22.23H858C857.89,369.58,857.82,369.5,857.82,369.35Z"/><path class="y" d="M867.9,361.18h-4.71a.07.07,0,0,0-.08.08v2.59c0,.06,0,.09.08.09h3.14a.19.19,0,0,1,.22.22v.95c0,.15-.07.23-.22.23h-3.14c-.05,0-.08,0-.08.08v2.67c0,.06,0,.09.08.09h4.71a.19.19,0,0,1,.22.22v1c0,.15-.07.23-.22.23h-6.19c-.15,0-.22-.08-.22-.23V360a.19.19,0,0,1,.22-.22h6.19a.19.19,0,0,1,.22.22V361C868.12,361.1,868.05,361.18,867.9,361.18Z"/><path class="y" d="M871.71,369.38,869.19,360a.14.14,0,0,1,0-.07.15.15,0,0,1,.06-.13.2.2,0,0,1,.15-.05h1.26a.22.22,0,0,1,.24.19l1.58,6.3s0,.06.06.06.05,0,.05-.06l1.5-6.3a.22.22,0,0,1,.24-.19h1.26a.23.23,0,0,1,.25.19l1.6,6.3s0,.06.05.06,0,0,.06-.06l1.55-6.3a.22.22,0,0,1,.24-.19h1.21a.19.19,0,0,1,.16.07.21.21,0,0,1,0,.18l-2.38,9.35a.23.23,0,0,1-.25.2h-1.22a.23.23,0,0,1-.24-.2L875,362.79s0-.06-.06-.06-.05,0-.06.06l-1.55,6.59a.23.23,0,0,1-.24.2H872A.23.23,0,0,1,871.71,369.38Z"/></g></g><g class="n"><g class="n"><path class="y" d="M923,359.78h.69a.16.16,0,0,1,.18.18v9.44a.16.16,0,0,1-.18.18H923c-.13,0-.19-.06-.19-.18v-8.53s0-.05,0-.06h-.06l-1.47.62h-.08c-.09,0-.13-.05-.13-.15v-.43a.21.21,0,0,1,.13-.21l1.52-.82A.6.6,0,0,1,923,359.78Z"/><path class="y" d="M931.64,366.55a5,5,0,0,1-.13,1.18,2.53,2.53,0,0,1-1,1.42,3.07,3.07,0,0,1-3.42,0,2.5,2.5,0,0,1-.95-1.34,4.09,4.09,0,0,1-.13-.56v0a.17.17,0,0,1,.05-.13.29.29,0,0,1,.14,0h.64a.18.18,0,0,1,.2.18.72.72,0,0,0,0,.24,1.66,1.66,0,0,0,.59,1,1.87,1.87,0,0,0,2.23,0,1.82,1.82,0,0,0,.58-1,3.1,3.1,0,0,0,.09-.82,7,7,0,0,0-.07-.93,1.44,1.44,0,0,0-.56-1,2,2,0,0,0-1.16-.33,2.17,2.17,0,0,0-1.07.25,1.3,1.3,0,0,0-.63.7.21.21,0,0,1-.21.15h-.68c-.13,0-.19-.06-.19-.18V360c0-.12.06-.18.19-.18h4.81a.16.16,0,0,1,.18.18v.5c0,.13-.06.19-.18.19h-3.93s-.07,0-.07.07l0,3.34s0,.06,0,.06,0,0,.06,0a2.59,2.59,0,0,1,.82-.49,3,3,0,0,1,1-.16,2.87,2.87,0,0,1,1.68.48,2.17,2.17,0,0,1,.88,1.36A6.57,6.57,0,0,1,931.64,366.55Z"/><path class="y" d="M936.45,369.4V360a.16.16,0,0,1,.18-.18h3.27a3.16,3.16,0,0,1,2.2.73,2.48,2.48,0,0,1,.82,2v4.4a2.49,2.49,0,0,1-.82,2,3.16,3.16,0,0,1-2.2.73h-3.27A.16.16,0,0,1,936.45,369.4Zm1.07-.69h2.42a2,2,0,0,0,1.45-.53,1.92,1.92,0,0,0,.54-1.43v-4.13a1.84,1.84,0,0,0-2-2h-2.42s-.07,0-.07.07v7.92C937.45,368.69,937.47,368.71,937.52,368.71Z"/><path class="y" d="M950.42,369.42l-.56-1.7a.07.07,0,0,0-.07-.06h-4.17s0,0-.07.06l-.54,1.7a.19.19,0,0,1-.2.16h-.67a.16.16,0,0,1-.14-.06.18.18,0,0,1,0-.15l3.08-9.44a.19.19,0,0,1,.2-.15h.9a.18.18,0,0,1,.19.15l3.1,9.44a.15.15,0,0,1,0,.07.14.14,0,0,1-.05.1.21.21,0,0,1-.12,0h-.67A.19.19,0,0,1,950.42,369.42Zm-4.5-2.57h3.59q.09,0,.06-.09L947.75,361s0-.06,0-.06,0,0,0,.06l-1.81,5.72Q945.85,366.85,945.92,366.85Z"/><path class="y" d="M954.43,369.38v-4.1a.16.16,0,0,0,0-.08l-2.87-5.2a.43.43,0,0,1,0-.1.18.18,0,0,1,0-.09.21.21,0,0,1,.12,0h.67a.21.21,0,0,1,.21.12l2.34,4.23s0,0,.08,0l2.35-4.23a.24.24,0,0,1,.21-.12h.67q.12,0,.15.06a.16.16,0,0,1,0,.16l-2.87,5.2a.16.16,0,0,0,0,.08v4.1a.16.16,0,0,1-.18.18h-.63A.16.16,0,0,1,954.43,369.38Z"/><path class="y" d="M965.25,369.42l-3-9.43a.15.15,0,0,1,0-.07.11.11,0,0,1,0-.1.16.16,0,0,1,.12,0H963a.18.18,0,0,1,.19.15l2.55,8.14s0,.05,0,.05,0,0,0-.05l2.54-8.14a.19.19,0,0,1,.2-.15h.66a.2.2,0,0,1,.14.05.17.17,0,0,1,0,.16l-3.06,9.43a.19.19,0,0,1-.2.16h-.71A.19.19,0,0,1,965.25,369.42Z"/><path class="y" d="M971.26,369.4V360a.16.16,0,0,1,.18-.18h.63a.16.16,0,0,1,.18.18v9.44a.16.16,0,0,1-.18.18h-.63A.16.16,0,0,1,971.26,369.4Z"/><path class="y" d="M981,360.65H976c-.05,0-.07,0-.07.07v3.43a.06.06,0,0,0,.07.07h3.55a.16.16,0,0,1,.18.18v.5a.16.16,0,0,1-.18.18H976a.06.06,0,0,0-.07.07v3.49c0,.05,0,.07.07.07H981a.16.16,0,0,1,.18.18v.51a.16.16,0,0,1-.18.18h-6a.16.16,0,0,1-.18-.18V360a.16.16,0,0,1,.18-.18h6a.16.16,0,0,1,.18.18v.5C981.22,360.59,981.16,360.65,981,360.65Z"/><path class="y" d="M985.26,369.42,982.6,360l0-.06c0-.1.06-.15.17-.15h.69a.18.18,0,0,1,.19.15l2.1,7.59s0,0,0,0a.05.05,0,0,0,.05,0l2-7.59a.18.18,0,0,1,.2-.15h.68a.18.18,0,0,1,.19.15l2,7.6s0,.05,0,.05,0,0,0-.05l2.1-7.6a.19.19,0,0,1,.2-.15h.64a.18.18,0,0,1,.14.05.21.21,0,0,1,0,.16l-2.62,9.43a.19.19,0,0,1-.2.16h-.67a.2.2,0,0,1-.21-.16l-2-7.78s0,0,0,0,0,0,0,0l-2,7.78a.2.2,0,0,1-.21.16h-.63A.18.18,0,0,1,985.26,369.42Z"/></g></g><g class="n"><g class="n"><path class="y" d="M1040.62,366.58a4.24,4.24,0,0,1-.21,1.35,2.49,2.49,0,0,1-.94,1.31,2.86,2.86,0,0,1-1.65.45,2.74,2.74,0,0,1-1.69-.52,2.52,2.52,0,0,1-1-1.37,4.2,4.2,0,0,1-.16-1c0-.12.06-.18.19-.18h.64a.16.16,0,0,1,.18.18,4.17,4.17,0,0,0,.09.71,1.75,1.75,0,0,0,.6,1,1.71,1.71,0,0,0,1.1.36,1.68,1.68,0,0,0,1-.29,1.59,1.59,0,0,0,.59-.81,3.13,3.13,0,0,0,.2-1.17,3.26,3.26,0,0,0-.25-1.37,1.53,1.53,0,0,0-1.57-1,1.2,1.2,0,0,0-.45.09l-.1,0a.17.17,0,0,1-.14-.09l-.3-.36a.28.28,0,0,1-.06-.13.22.22,0,0,1,.06-.12l2.43-2.86c0-.06,0-.08,0-.08h-3.92c-.12,0-.18-.06-.18-.19V360a.16.16,0,0,1,.18-.18h5.1a.16.16,0,0,1,.18.18v.56a.35.35,0,0,1-.09.22l-2.25,2.71s0,0,0,.05,0,0,.07,0a2.19,2.19,0,0,1,2,1.41A4.3,4.3,0,0,1,1040.62,366.58Z"/><path class="y" d="M1043.34,369a2.75,2.75,0,0,1-.8-2.06v-4.42a2.73,2.73,0,0,1,.8-2.06,3.42,3.42,0,0,1,4.31,0,2.71,2.71,0,0,1,.81,2.05v4.42a2.72,2.72,0,0,1-.81,2.06,3,3,0,0,1-2.17.77A3,3,0,0,1,1043.34,369Zm3.58-.62a1.78,1.78,0,0,0,.55-1.38v-4.53a1.82,1.82,0,0,0-.54-1.37,2,2,0,0,0-1.45-.52,1.94,1.94,0,0,0-1.41.52,1.81,1.81,0,0,0-.53,1.37V367a1.8,1.8,0,0,0,.53,1.38,1.9,1.9,0,0,0,1.41.52A2,2,0,0,0,1046.92,368.33Z"/><path class="y" d="M1053.57,369.4V360c0-.12.06-.18.19-.18H1057a3.16,3.16,0,0,1,2.2.73,2.48,2.48,0,0,1,.82,2v4.4a2.49,2.49,0,0,1-.82,2,3.16,3.16,0,0,1-2.2.73h-3.26C1053.63,369.58,1053.57,369.52,1053.57,369.4Zm1.07-.69h2.42a2,2,0,0,0,1.45-.53,1.92,1.92,0,0,0,.54-1.43v-4.13a1.83,1.83,0,0,0-2-2h-2.42c-.05,0-.07,0-.07.07v7.92C1054.57,368.69,1054.59,368.71,1054.64,368.71Z"/><path class="y" d="M1067.55,369.42l-.56-1.7a.1.1,0,0,0-.07-.06h-4.18a.1.1,0,0,0-.07.06l-.54,1.7a.19.19,0,0,1-.2.16h-.67a.16.16,0,0,1-.14-.06.15.15,0,0,1,0-.15l3.08-9.44a.18.18,0,0,1,.19-.15h.9a.18.18,0,0,1,.19.15l3.1,9.44a.15.15,0,0,1,0,.07.11.11,0,0,1,0,.1.21.21,0,0,1-.12,0h-.67A.18.18,0,0,1,1067.55,369.42Zm-4.51-2.57h3.6s.07,0,0-.09l-1.82-5.72s0-.06,0-.06,0,0,0,.06l-1.81,5.72Q1063,366.85,1063,366.85Z"/><path class="y" d="M1071.55,369.38v-4.1a.16.16,0,0,0,0-.08l-2.87-5.2a.43.43,0,0,1,0-.1.14.14,0,0,1,.05-.09.16.16,0,0,1,.11,0h.67a.21.21,0,0,1,.21.12l2.34,4.23s0,0,.08,0l2.35-4.23a.24.24,0,0,1,.21-.12h.68c.07,0,.12,0,.14.06a.14.14,0,0,1,0,.16l-2.87,5.2a.16.16,0,0,0,0,.08v4.1a.16.16,0,0,1-.18.18h-.63A.16.16,0,0,1,1071.55,369.38Z"/><path class="y" d="M1082.37,369.42l-3-9.43a.15.15,0,0,1,0-.07.14.14,0,0,1,0-.1.16.16,0,0,1,.12,0h.67a.19.19,0,0,1,.2.15l2.54,8.14s0,.05,0,.05,0,0,0-.05l2.55-8.14a.18.18,0,0,1,.19-.15h.66a.18.18,0,0,1,.14.05.17.17,0,0,1,0,.16l-3.06,9.43a.19.19,0,0,1-.2.16h-.71A.19.19,0,0,1,1082.37,369.42Z"/><path class="y" d="M1088.38,369.4V360a.16.16,0,0,1,.18-.18h.63a.16.16,0,0,1,.18.18v9.44a.16.16,0,0,1-.18.18h-.63A.16.16,0,0,1,1088.38,369.4Z"/><path class="y" d="M1098.16,360.65h-5.09s-.07,0-.07.07v3.43a.06.06,0,0,0,.07.07h3.55a.17.17,0,0,1,.19.18v.5a.17.17,0,0,1-.19.18h-3.55a.06.06,0,0,0-.07.07v3.49c0,.05,0,.07.07.07h5.09a.17.17,0,0,1,.19.18v.51a.17.17,0,0,1-.19.18h-6c-.13,0-.19-.06-.19-.18V360c0-.12.06-.18.19-.18h6a.17.17,0,0,1,.19.18v.5A.17.17,0,0,1,1098.16,360.65Z"/><path class="y" d="M1102.38,369.42l-2.66-9.43,0-.06c0-.1.06-.15.17-.15h.69a.18.18,0,0,1,.19.15l2.1,7.59a.05.05,0,0,0,.05,0s0,0,0,0l2-7.59a.18.18,0,0,1,.21-.15h.67a.19.19,0,0,1,.2.15l2,7.6s0,.05,0,.05,0,0,0-.05l2.1-7.6a.19.19,0,0,1,.2-.15h.64a.18.18,0,0,1,.14.05.17.17,0,0,1,0,.16l-2.62,9.43a.19.19,0,0,1-.2.16h-.67a.2.2,0,0,1-.21-.16l-2-7.78a0,0,0,0,0,0,0s0,0,0,0l-2,7.78a.18.18,0,0,1-.21.16h-.63A.18.18,0,0,1,1102.38,369.42Z"/></g></g><rect class="y" x="802.32" y="388.58" width="87" height="4"/><rect class="g" x="585.32" y="419.58" width="160" height="36" rx="4"/><rect class="g" x="199.32" y="490.58" width="160" height="36" rx="4"/><rect class="g" x="755.32" y="419.58" width="160" height="36" rx="4"/><rect class="g" x="375.32" y="490.58" width="160" height="36" rx="4"/><rect class="g" x="925.32" y="419.58" width="160" height="36" rx="4"/><g class="z"><rect class="h" x="199.32" y="440.08" width="336.01" height="40" rx="4"/><rect class="aa" x="199.82" y="440.58" width="335.01" height="39" rx="3.5"/><path class="a" d="M501.33,448.08h24v24h-24Z"/><path class="ab" d="M516.83,462.08H516l-.28-.27a6.52,6.52,0,1,0-.7.7l.27.28v.79l4.25,4.25a1.05,1.05,0,0,0,1.49-1.49Zm-6,0a4.5,4.5,0,1,1,4.5-4.5,4.51,4.51,0,0,1-4.5,4.5Z"/></g><path class="e" d="M206.88,843.58H321.77a2.32,2.32,0,0,1,2.55,2v32a2.33,2.33,0,0,1-2.55,2H206.88a2.34,2.34,0,0,1-2.56-2v-32A2.33,2.33,0,0,1,206.88,843.58Z"/><path class="ac" d="M212.32,569.58l-6.42,7.5,6.42,7.5"/><path class="ac" d="M528.9,584.58l6.42-7.5-6.42-7.5"/><line class="ad" x1="2058.82" y1="393.08" x2="585.82" y2="393.08"/><g class="ae"><g class="n"><g class="n"><path class="af" d="M1983.71,370.37a2.6,2.6,0,0,1-1.17-.92,2.35,2.35,0,0,1-.42-1.38v-.39a.16.16,0,0,1,.18-.18h.61a.16.16,0,0,1,.18.18V368a1.55,1.55,0,0,0,.67,1.3,3,3,0,0,0,1.81.5,2.55,2.55,0,0,0,1.63-.45,1.47,1.47,0,0,0,.56-1.21,1.37,1.37,0,0,0-.25-.84,2.48,2.48,0,0,0-.8-.66,11.81,11.81,0,0,0-1.52-.72,15.62,15.62,0,0,1-1.63-.73,2.75,2.75,0,0,1-.94-.81,2.09,2.09,0,0,1-.36-1.26,2.2,2.2,0,0,1,.82-1.82,3.51,3.51,0,0,1,2.26-.65,3.79,3.79,0,0,1,2.44.72,2.36,2.36,0,0,1,.89,1.94v.26a.16.16,0,0,1-.18.18h-.61c-.13,0-.19-.06-.19-.18v-.21a1.67,1.67,0,0,0-.62-1.33,2.79,2.79,0,0,0-1.78-.52,2.44,2.44,0,0,0-1.52.41,1.4,1.4,0,0,0-.53,1.18,1.33,1.33,0,0,0,.26.83,2.11,2.11,0,0,0,.74.57c.33.17.82.38,1.48.64a14.67,14.67,0,0,1,1.65.78,3.25,3.25,0,0,1,1,.89,2.15,2.15,0,0,1,.38,1.28,2.3,2.3,0,0,1-.86,1.87,3.71,3.71,0,0,1-2.4.71A4.69,4.69,0,0,1,1983.71,370.37Z"/><path class="af" d="M1996.6,361v.52a.16.16,0,0,1-.18.18h-2.69s-.07,0-.07.07v8.67a.16.16,0,0,1-.18.18h-.63a.17.17,0,0,1-.19-.18v-8.67c0-.05,0-.07-.07-.07H1990a.16.16,0,0,1-.18-.18V361a.16.16,0,0,1,.18-.18h6.4A.16.16,0,0,1,1996.6,361Z"/><path class="af" d="M2003.37,370.42l-.56-1.7a.07.07,0,0,0-.07-.06h-4.17s0,0-.07.06l-.54,1.7a.19.19,0,0,1-.2.16h-.67a.16.16,0,0,1-.14-.06.15.15,0,0,1,0-.15l3.08-9.44a.19.19,0,0,1,.2-.15h.9a.18.18,0,0,1,.19.15l3.1,9.44s0,0,0,.07a.14.14,0,0,1-.05.1.21.21,0,0,1-.12,0h-.67A.19.19,0,0,1,2003.37,370.42Zm-4.5-2.57h3.59q.09,0,.06-.09L2000.7,362s0-.06,0-.06,0,0,0,.06l-1.81,5.72Q1998.8,367.85,1998.87,367.85Z"/></g></g><path class="af" d="M1945.71,373.24h22.23a1.39,1.39,0,0,0,0-2.77h-22.23a1.39,1.39,0,1,0,0,2.77Zm0-6.94h22.23a1.39,1.39,0,0,0,0-2.78h-22.23a1.39,1.39,0,0,0,0,2.78Zm-1.39-8.33a1.41,1.41,0,0,0,1.39,1.39h22.23a1.39,1.39,0,0,0,0-2.78h-22.23A1.4,1.4,0,0,0,1944.32,358Z"/></g><path class="g" d="M190,235.58H2090.63a9.69,9.69,0,0,1,9.69,9.69v60.61a9.69,9.69,0,0,1-9.69,9.7H180.32V245.27A9.69,9.69,0,0,1,190,235.58Z"/><g class="n"><g class="n"><path class="y" d="M297.73,272.47h-4.49a.08.08,0,0,0-.09.09v2.14c0,.05,0,.08.09.08h2.92a.21.21,0,0,1,.24.24v1.22a.21.21,0,0,1-.24.24h-2.92c-.06,0-.09,0-.09.08v3.78a.21.21,0,0,1-.24.24h-1.49a.21.21,0,0,1-.24-.24V271a.21.21,0,0,1,.24-.24h6.31a.21.21,0,0,1,.24.24v1.21A.21.21,0,0,1,297.73,272.47Z"/><path class="y" d="M302.81,273.45a.25.25,0,0,1,.13.3l-.27,1.47c0,.08,0,.13-.07.15a.37.37,0,0,1-.21,0,1.55,1.55,0,0,0-.4-.06l-.33,0a1.38,1.38,0,0,0-.85.37,1.16,1.16,0,0,0-.35.88v3.75a.21.21,0,0,1-.24.24h-1.5a.21.21,0,0,1-.23-.24v-6.72a.21.21,0,0,1,.23-.24h1.5a.21.21,0,0,1,.24.24v.43s0,.06,0,.07,0,0,.07,0a1.73,1.73,0,0,1,1.51-.82A1.47,1.47,0,0,1,302.81,273.45Z"/><path class="y" d="M304.83,280.07a3.1,3.1,0,0,1-1.15-1.68,5,5,0,0,1-.2-1.42,5,5,0,0,1,.21-1.49,3,3,0,0,1,1.16-1.62,3.42,3.42,0,0,1,2-.59,3.31,3.31,0,0,1,2,.59,3,3,0,0,1,1.14,1.61,4.74,4.74,0,0,1,.21,1.47,5.56,5.56,0,0,1-.18,1.41,3.14,3.14,0,0,1-3.15,2.34A3.29,3.29,0,0,1,304.83,280.07Zm2.8-1.35a1.61,1.61,0,0,0,.46-.77,3.78,3.78,0,0,0,.11-1,4,4,0,0,0-.11-1,1.47,1.47,0,0,0-.46-.74,1.21,1.21,0,0,0-.8-.27,1.16,1.16,0,0,0-.78.27,1.48,1.48,0,0,0-.47.74,4,4,0,0,0-.11,1,4,4,0,0,0,.11,1,1.62,1.62,0,0,0,.47.77,1.24,1.24,0,0,0,.81.28A1.18,1.18,0,0,0,307.63,278.72Z"/><path class="y" d="M317,274a2.48,2.48,0,0,1,.69,1.86v4.52a.21.21,0,0,1-.24.24H316a.21.21,0,0,1-.24-.24v-4.12a1.37,1.37,0,0,0-.3-.91,1.06,1.06,0,0,0-.83-.35,1.1,1.1,0,0,0-.84.35,1.33,1.33,0,0,0-.32.91v4.12a.21.21,0,0,1-.24.24h-1.5a.21.21,0,0,1-.24-.24v-6.72a.21.21,0,0,1,.24-.24h1.5a.21.21,0,0,1,.24.24V274s0,.06,0,.07,0,0,0,0a2,2,0,0,1,1.7-.78A2.42,2.42,0,0,1,317,274Z"/><path class="y" d="M323,275h-1.26c-.05,0-.08,0-.08.09V278a1,1,0,0,0,.19.67.75.75,0,0,0,.61.22h.39a.21.21,0,0,1,.24.24v1.2a.24.24,0,0,1-.24.26l-.77,0a3.16,3.16,0,0,1-1.74-.39,1.66,1.66,0,0,1-.58-1.45v-3.67a.08.08,0,0,0-.09-.09H319a.21.21,0,0,1-.24-.23v-1.11a.21.21,0,0,1,.24-.24h.71c.06,0,.09,0,.09-.08v-1.58a.21.21,0,0,1,.23-.24h1.43a.21.21,0,0,1,.24.24v1.58a.07.07,0,0,0,.08.08H323a.21.21,0,0,1,.24.24v1.11A.21.21,0,0,1,323,275Z"/><path class="y" d="M329,270.78h1.5a.21.21,0,0,1,.24.24v9.32a.21.21,0,0,1-.24.24H329a.21.21,0,0,1-.24-.24V280s0-.06,0-.06-.05,0-.06,0a1.9,1.9,0,0,1-1.6.76,2.7,2.7,0,0,1-1.69-.57,2.83,2.83,0,0,1-1-1.49,5.06,5.06,0,0,1-.24-1.68,4.8,4.8,0,0,1,.27-1.73,2.87,2.87,0,0,1,1-1.43,2.66,2.66,0,0,1,1.66-.53,2,2,0,0,1,1.6.68,0,0,0,0,0,.06,0s0,0,0-.07V271A.21.21,0,0,1,329,270.78Zm-.25,6.2a3,3,0,0,0-.29-1.44,1.07,1.07,0,0,0-.94-.55,1.09,1.09,0,0,0-1,.53,2.81,2.81,0,0,0-.34,1.47,2.87,2.87,0,0,0,.3,1.38,1.09,1.09,0,0,0,1,.6,1,1,0,0,0,.95-.6A2.91,2.91,0,0,0,328.74,277Z"/><path class="y" d="M337.1,278.38a.2.2,0,0,1,.33,0l.8.77a.24.24,0,0,1,.09.17.25.25,0,0,1-.06.17,3.23,3.23,0,0,1-1.18.9,3.76,3.76,0,0,1-1.58.33,3.34,3.34,0,0,1-2.13-.66,3.16,3.16,0,0,1-1.14-1.8,4.66,4.66,0,0,1-.17-1.31,5.41,5.41,0,0,1,.15-1.37,3,3,0,0,1,1.13-1.66,3.25,3.25,0,0,1,2-.63,3,3,0,0,1,2.18.81,4.11,4.11,0,0,1,1,2.28c0,.31.06.65.08,1a.21.21,0,0,1-.24.24h-4.29c-.06,0-.09,0-.09.08a2.08,2.08,0,0,0,.1.44,1.12,1.12,0,0,0,.55.66,2,2,0,0,0,1,.23A1.82,1.82,0,0,0,337.1,278.38Zm-2.53-3.2a1.1,1.1,0,0,0-.41.61c-.05.18-.08.29-.09.35s0,.08.07.08h2.38c.05,0,.07,0,.07-.05a1.25,1.25,0,0,0,0-.32,1.26,1.26,0,0,0-.44-.65,1.21,1.21,0,0,0-.78-.24A1.28,1.28,0,0,0,334.57,275.18Z"/><path class="y" d="M341.1,280.41a2.54,2.54,0,0,1-1.08-.74,1.7,1.7,0,0,1-.37-1.08v-.07a.21.21,0,0,1,.23-.24h1.42q.24,0,.24.09v.09a.63.63,0,0,0,.33.53,1.61,1.61,0,0,0,.86.22,1.4,1.4,0,0,0,.77-.19.55.55,0,0,0,.29-.47.4.4,0,0,0-.25-.38,5.36,5.36,0,0,0-.83-.27,7,7,0,0,1-1-.32,4.4,4.4,0,0,1-1.44-.75,1.58,1.58,0,0,1-.53-1.29,2,2,0,0,1,.81-1.65,3.49,3.49,0,0,1,2.13-.61,4,4,0,0,1,1.57.29,2.4,2.4,0,0,1,1,.81,1.92,1.92,0,0,1,.37,1.17.14.14,0,0,1-.06.12.3.3,0,0,1-.18.05H344c-.16,0-.24,0-.24-.08v-.09a.63.63,0,0,0-.3-.52,1.46,1.46,0,0,0-.83-.21,1.55,1.55,0,0,0-.76.17.51.51,0,0,0-.3.46.44.44,0,0,0,.28.42,4.27,4.27,0,0,0,.95.3,5,5,0,0,1,.78.21,4.56,4.56,0,0,1,1.58.75,1.62,1.62,0,0,1,.58,1.35,1.85,1.85,0,0,1-.83,1.61,3.76,3.76,0,0,1-2.21.59A4.55,4.55,0,0,1,341.1,280.41Z"/><path class="y" d="M346.91,280.34V271a.21.21,0,0,1,.24-.24h1.5a.21.21,0,0,1,.24.24v4.62a.06.06,0,0,0,0,.06.06.06,0,0,0,.06,0l1.87-2.14a.42.42,0,0,1,.29-.14h1.69a.25.25,0,0,1,.16,0,.1.1,0,0,1,.05.1.24.24,0,0,1-.05.16l-1.72,2.15a.09.09,0,0,0,0,.11l2.06,4.36,0,.11c0,.11-.07.17-.21.17h-1.58a.27.27,0,0,1-.28-.18l-1.36-3.21c0-.06-.07-.06-.11,0l-.87,1.1a.16.16,0,0,0,0,.1v2a.21.21,0,0,1-.24.24h-1.5A.21.21,0,0,1,346.91,280.34Z"/></g></g><rect class="y" x="280.32" y="311.58" width="83" height="4"/><circle class="ag" cx="240.32" cy="275.58" r="20"/><path class="h" d="M251.91,282.28a.22.22,0,0,0,0-.08l-.3-.48-.94-1.62,0-.06a.63.63,0,0,0-.51-.27H230.58a.62.62,0,0,0-.55.32h0l-.91,1.57-.33.56a.2.2,0,0,0,0,.08.52.52,0,0,0-.07.27.64.64,0,0,0,.63.64h22a.62.62,0,0,0,.63-.61.55.55,0,0,0-.07-.31Z"/><path class="h" d="M250.73,276.65a10.5,10.5,0,0,0-9.14-10.14h-.1a10.45,10.45,0,0,0-2.5,0h-.16a10.5,10.5,0,0,0-9.07,10.14v.13a.93.93,0,0,0,.94.88h19.12a.92.92,0,0,0,.94-.88v-.13Z"/><path class="h" d="M242.08,264.54h0a1.75,1.75,0,0,0-1.7-1.46h0a1.73,1.73,0,0,0-1.65,1.46h0v.12a.22.22,0,0,0,.2.14h3a.22.22,0,0,0,.22-.22h0Z"/><rect class="g" x="1940.32" y="259.58" width="120" height="33" rx="8"/><rect class="e" x="1940.82" y="260.08" width="119" height="32" rx="7.5"/><rect class="ah" x="602.17" y="993.18" width="91" height="17"/><rect class="ah" x="602.17" y="693.18" width="91" height="17"/><rect class="ah" x="602.17" y="761.18" width="91" height="17"/><rect class="ah" x="627.45" y="813.18" width="65.72" height="17"/><rect class="ah" x="602.17" y="1061.18" width="91" height="17"/><rect class="ah" x="627.45" y="1113.18" width="65.72" height="17"/><rect class="ah" x="602.17" y="529.18" width="72" height="17"/><rect class="ah" x="989.17" y="529.18" width="26" height="17"/><rect class="ah" x="1160.17" y="529.18" width="26" height="17"/><rect class="ai" x="820.17" y="529.18" width="26" height="17"/><rect class="ah" x="1535.67" y="527.68" width="26" height="17"/><rect class="ah" x="1366.67" y="527.68" width="26" height="17"/><rect class="ah" x="1902.17" y="528.18" width="26" height="17"/><rect class="ah" x="1733.17" y="528.18" width="26" height="17"/><rect class="aj" x="215.17" y="974.18" width="66" height="17"/><rect class="aj" x="215.17" y="1000.18" width="88" height="17"/><rect class="aj" x="215.17" y="1028.18" width="98" height="17"/><rect class="aj" x="215.17" y="1055.18" width="98" height="17"/><rect class="aj" x="215.17" y="1082.18" width="51" height="17"/><rect class="aj" x="215.17" y="1166.18" width="66" height="17"/><rect class="aj" x="215.17" y="1192.18" width="88" height="17"/><rect class="aj" x="215.17" y="1220.18" width="98" height="17"/><rect class="aj" x="215.17" y="1247.18" width="98" height="17"/><rect class="aj" x="215.17" y="1274.18" width="51" height="17"/><rect class="h" x="586.32" y="1272.58" width="140" height="60"/><rect class="h" x="586.32" y="1332.58" width="140" height="60"/><rect class="j" x="586.32" y="1452.58" width="140" height="60"/><rect class="f" x="586.32" y="1392.58" width="140" height="60"/><rect class="i" x="586.32" y="1512.58" width="140" height="60"/><rect class="h" x="726.32" y="1272.58" width="1284.5" height="60"/><rect class="i" x="910.32" y="1512.58" width="184" height="60"/><rect class="i" x="1462.32" y="1512.58" width="184" height="60"/><rect class="i" x="1094.32" y="1512.58" width="184" height="60"/><rect class="i" x="1646.32" y="1512.58" width="367.84" height="60"/><rect class="i" x="1094.32" y="1452.58" width="184" height="60"/><rect class="l" x="1646.32" y="1452.58" width="367.84" height="60"/><rect class="m" x="726.32" y="1452.58" width="368" height="60"/><rect class="f" x="726.32" y="1392.58" width="184" height="60"/><rect class="f" x="1278.32" y="1392.58" width="184" height="60"/><rect class="f" x="910.32" y="1392.58" width="184" height="60"/><rect class="f" x="1462.32" y="1392.58" width="184" height="60"/><rect class="f" x="1646.32" y="1392.58" width="367.84" height="60"/><rect class="f" x="1094.32" y="1392.58" width="184" height="60"/><rect class="p" x="726.32" y="1512.58" width="184" height="60"/><rect class="r" x="1278.32" y="1512.58" width="184" height="60"/><rect class="u" x="1278.32" y="1452.58" width="368" height="60"/><rect class="ah" x="602.17" y="1294.18" width="91" height="17"/><rect class="ah" x="602.17" y="1362.18" width="91" height="17"/><rect class="ah" x="627.45" y="1414.18" width="65.72" height="17"/></g><rect class="h" x="1825.17" y="0.18" width="175" height="1807"/><rect class="ak" x="1225.66" y="0.18" width="599.84" height="1807"/></svg>