<svg id="Layer_1" data-name="Layer 1" xmlns="http://www.w3.org/2000/svg" viewBox="0 0 600 400"><defs><style>.cls-1{fill:#6772e5;}</style></defs><title>revinate-logo-Artboard 1</title><path class="cls-1" d="M74.4,176.37c0-5.68,4.66-7.87,12.39-7.87A81.5,81.5,0,0,1,123,177.83V143.56a96.24,96.24,0,0,0-36.17-6.71c-29.6,0-49.29,15.46-49.29,41.28,0,40.24,55.42,33.83,55.42,51.18,0,6.71-5.84,8.9-14,8.9-12.11,0-27.57-5-39.82-11.67v34.71a101.18,101.18,0,0,0,39.82,8.31c30.33,0,51.18-15,51.18-41.12C130,185,74.4,192.71,74.4,176.37ZM173,107.69l-35.58,7.58-.15,116.81c0,21.59,16.19,37.48,37.77,37.48,12,0,20.71-2.18,25.52-4.81v-29.6c-4.66,1.89-27.71,8.6-27.71-13V170.4h27.71V139.33H172.83Zm72.92,42.44-2.34-10.8h-31.5V266.94h36.46V180.46c8.6-11.23,23.19-9.19,27.71-7.58V139.33c-4.67-1.75-21.73-5-30.33,10.8Zm39.22-10.8h36.61V266.94H285.12V139.33Zm0-11.08,36.61-7.87V90.77L285.12,98.5v29.75Zm112.73,8.6a41.17,41.17,0,0,0-28.58,11.38l-1.9-9H335.29v170l36.46-7.73.15-41.27c5.25,3.79,13,9.19,25.81,9.19,26.1,0,49.87-21,49.87-67.23-.14-42.29-24.2-65.34-49.73-65.34ZM389.1,237.33c-8.6,0-13.71-3.06-17.2-6.85l-.15-54.11c3.79-4.22,9-7.14,17.35-7.14,13.27,0,22.46,14.87,22.46,34,0,19.54-9,34.12-22.46,34.12Zm173.4-33.68c0-37.34-18.08-66.8-52.65-66.8s-55.71,29.46-55.71,66.51c0,43.89,24.8,66.06,60.38,66.06,17.35,0,30.48-3.94,40.4-9.48V230.77c-9.92,5-21.3,8-35.73,8-14.15,0-26.69-5-28.29-22.16h71.31c0-1.9.29-9.48.29-13Zm-72-13.86c0-16.48,10.06-23.33,19.25-23.33,8.89,0,18.37,6.85,18.37,23.33Z"/></svg>