<svg id="Layer_1" data-name="Layer 1" xmlns="http://www.w3.org/2000/svg" viewBox="0 0 600 400"><defs><style>.cls-1{fill:#003087;}.cls-2{fill:#009cde;}.cls-3{fill:#012169;}</style></defs><title>revinate-logo-Artboard 1 copy 7</title><path class="cls-1" d="M130.26,142.33c-6.28-7.17-17.65-10.24-32.2-10.24H55.86a6.05,6.05,0,0,0-6,5.1L32.31,248.66a3.6,3.6,0,0,0,3.59,4.18H62l6.55-41.51-.21,1.3a6,6,0,0,1,5.95-5.09H86.62c24.33,0,43.38-9.88,48.94-38.47.17-.84.31-1.66.43-2.47,1.66-10.56,0-17.75-5.72-24.26"/><path class="cls-2" d="M449.27,195.38c-1.59,10.45-9.58,10.45-17.31,10.45h-4.39l3.08-19.52a2.44,2.44,0,0,1,2.4-2.05h2c5.26,0,10.22,0,12.79,3,1.52,1.79,2,4.45,1.41,8.13m-3.36-27.29H416.77a4.06,4.06,0,0,0-4,3.41L401,246.22a2.43,2.43,0,0,0,2.4,2.8h14.95a2.84,2.84,0,0,0,2.8-2.39l3.34-21.18a4.05,4.05,0,0,1,4-3.42h9.22c19.19,0,30.27-9.29,33.16-27.7,1.31-8.05.06-14.37-3.71-18.8-4.15-4.87-11.49-7.45-21.24-7.45"/><path class="cls-1" d="M241.44,195.38c-1.6,10.45-9.58,10.45-17.31,10.45h-4.4l3.09-19.52a2.43,2.43,0,0,1,2.4-2.05h2c5.26,0,10.23,0,12.79,3,1.53,1.79,2,4.45,1.42,8.13m-3.36-27.29H208.94a4.05,4.05,0,0,0-4,3.41l-11.78,74.72a2.42,2.42,0,0,0,2,2.77,2.31,2.31,0,0,0,.37,0h13.92a4.05,4.05,0,0,0,4-3.42l3.18-20.15a4.05,4.05,0,0,1,4-3.42h9.22c19.19,0,30.27-9.29,33.16-27.7,1.31-8.05.05-14.37-3.71-18.8-4.15-4.87-11.49-7.45-21.24-7.45m67.65,54.12A15.58,15.58,0,0,1,290,235.53c-4.05,0-7.29-1.31-9.37-3.77s-2.84-5.93-2.19-9.8a15.62,15.62,0,0,1,15.64-13.43c4,0,7.17,1.32,9.3,3.8a12,12,0,0,1,2.37,9.87M325.17,195H311.22a2.44,2.44,0,0,0-2.41,2.05l-.61,3.9-1-1.41c-3-4.39-9.76-5.85-16.48-5.85-15.42,0-28.59,11.68-31.15,28.06-1.33,8.18.56,16,5.2,21.44,4.25,5,10.33,7.09,17.57,7.09a26.72,26.72,0,0,0,19.32-8l-.63,3.88a2.44,2.44,0,0,0,2,2.78l.38,0H316a4.05,4.05,0,0,0,4-3.42l7.54-47.76a2.43,2.43,0,0,0-2-2.78l-.38,0"/><path class="cls-2" d="M513.56,222.2a15.58,15.58,0,0,1-15.75,13.33c-4.05,0-7.29-1.31-9.37-3.77s-2.84-5.93-2.19-9.8a15.61,15.61,0,0,1,15.64-13.43c4,0,7.17,1.32,9.3,3.8a12,12,0,0,1,2.37,9.87M533,195h-14a2.44,2.44,0,0,0-2.41,2.05L516,201l-1-1.41c-3-4.39-9.76-5.85-16.48-5.85-15.41,0-28.58,11.68-31.15,28.06-1.33,8.18.57,16,5.2,21.44,4.26,5,10.33,7.09,17.57,7.09a26.72,26.72,0,0,0,19.32-8l-.62,3.88a2.43,2.43,0,0,0,2,2.78,2.56,2.56,0,0,0,.39,0h12.56a4.07,4.07,0,0,0,4-3.42l7.54-47.76a2.43,2.43,0,0,0-2-2.78l-.38,0"/><path class="cls-1" d="M399.49,195h-14a4.07,4.07,0,0,0-3.35,1.78l-19.34,28.49-8.21-27.38a4.05,4.05,0,0,0-3.88-2.89H336.9a2.43,2.43,0,0,0-2.43,2.43,2.28,2.28,0,0,0,.13.78L350,243.58l-14.52,20.5a2.43,2.43,0,0,0,2,3.83h14a4.06,4.06,0,0,0,3.33-1.74l46.64-67.32a2.42,2.42,0,0,0-.61-3.37,2.38,2.38,0,0,0-1.38-.44"/><path class="cls-2" d="M549.45,170.14l-12,76.08a2.44,2.44,0,0,0,2,2.78,2.31,2.31,0,0,0,.37,0h12a4.05,4.05,0,0,0,4-3.42l11.79-74.72a2.41,2.41,0,0,0-2-2.77l-.39,0H551.85a2.4,2.4,0,0,0-2.4,2"/><path class="cls-1" d="M130.26,142.33c-6.28-7.17-17.65-10.24-32.2-10.24H55.86a6.05,6.05,0,0,0-6,5.1L32.31,248.66a3.6,3.6,0,0,0,3.59,4.18H62l6.55-41.51-.21,1.3a6,6,0,0,1,5.95-5.09H86.62c24.33,0,43.38-9.88,48.94-38.47.17-.84.31-1.66.43-2.47,1.66-10.56,0-17.75-5.72-24.26"/><path class="cls-1" d="M75.53,166.74a5.28,5.28,0,0,1,5.21-4.46h33.1a70,70,0,0,1,10.91.79,45.45,45.45,0,0,1,5.41,1.21A30.54,30.54,0,0,1,136,166.6c1.66-10.57,0-17.75-5.73-24.27-6.29-7.16-17.65-10.24-32.2-10.24H55.85a6,6,0,0,0-6,5.1L32.31,248.65a3.6,3.6,0,0,0,3.58,4.19H62l6.54-41.51Z"/><path class="cls-2" d="M136,166.6c-.13.82-.27,1.65-.43,2.47C130,197.65,111,207.53,86.62,207.53H74.23a6,6,0,0,0-5.94,5.1L62,252.84l-1.8,11.4a3.16,3.16,0,0,0,2.63,3.63,2.81,2.81,0,0,0,.5,0h22a5.28,5.28,0,0,0,5.21-4.46l.22-1.12,4.14-26.24.26-1.45a5.29,5.29,0,0,1,5.22-4.46h3.29c21.28,0,37.94-8.64,42.81-33.64,2-10.45,1-19.18-4.4-25.3a20.92,20.92,0,0,0-6-4.64"/><path class="cls-3" d="M130.16,164.28c-.85-.25-1.72-.48-2.62-.68s-1.84-.37-2.79-.52a67.65,67.65,0,0,0-10.92-.8H80.74a5.26,5.26,0,0,0-5.21,4.46l-7,44.59-.2,1.3a6,6,0,0,1,5.94-5.1H86.62c24.33,0,43.37-9.88,48.94-38.46.16-.85.3-1.66.43-2.47a29.22,29.22,0,0,0-4.58-1.93c-.41-.14-.82-.27-1.25-.39"/></svg>