<?xml version="1.0" encoding="utf-8"?>
<!-- Generator: Adobe Illustrator 24.0.0, SVG Export Plug-In . SVG Version: 6.00 Build 0)  -->
<svg version="1.1" id="Layer_1" xmlns="http://www.w3.org/2000/svg" xmlns:xlink="http://www.w3.org/1999/xlink" x="0px" y="0px"
	 viewBox="0 0 271.3 38.3" style="enable-background:new 0 0 271.3 38.3;" xml:space="preserve">
<style type="text/css">
	.st0{filter:url(#Adobe_OpacityMaskFilter);}
	.st1{fill-rule:evenodd;clip-rule:evenodd;fill:#FFFFFF;}
	.st2{mask:url(#mask-2_1_);fill-rule:evenodd;clip-rule:evenodd;fill:#2364FF;}
	.st3{fill-rule:evenodd;clip-rule:evenodd;fill:#2364FF;}
	.st4{fill-rule:evenodd;clip-rule:evenodd;}
</style>
<title>userway_logo</title>
<desc>Created with Sketch.</desc>
<g id="Page-1">
	<g id="Artboard" transform="translate(-161.000000, -122.000000)">
		<g id="userway_logo" transform="translate(161.000000, 122.000000)">
			<g id="Group-3" transform="translate(0.000000, 0.331000)">
				<g id="Clip-2">
				</g>
				<defs>
					<filter id="Adobe_OpacityMaskFilter" filterUnits="userSpaceOnUse" x="0" y="0.2" width="35.8" height="37.8">
						<feColorMatrix  type="matrix" values="1 0 0 0 0  0 1 0 0 0  0 0 1 0 0  0 0 0 1 0"/>
					</filter>
				</defs>
				<mask maskUnits="userSpaceOnUse" x="0" y="0.2" width="35.8" height="37.8" id="mask-2_1_">
					<g class="st0">
						<polygon id="path-1_1_" class="st1" points="0,0.2 35.8,0.2 35.8,38 0,38 						"/>
					</g>
				</mask>
				<path id="Fill-1" class="st2" d="M31.6,32.8c2.7-2.8,4.1-6.6,4.1-11.2v-2.3v0V1.5V0.2h-7.1H25l0,0h-1.5v21.5
					c0,3.1-1.6,5.2-3.9,5.8v0l0,0c-0.5,0.1-1,0.2-1.5,0.2c-3.1,0-5.7-2.4-5.7-6.1v-4.3l0,0l0,0V0.2H0v0.1v21.4
					c0,9.6,6.8,16,17.2,16.3v0v0c0.3,0,0.5,0,0.8,0c3,0,5.7-0.5,8.1-1.5C28.3,35.7,30.1,34.4,31.6,32.8"/>
			</g>
			<path id="Fill-4" class="st3" d="M55.7,9.4c0.8,0,1.7,0.1,2.8,0.4l0,0v0c3.2,0.7,7.2,2.4,10.1,4L72,6.5v0l0.2-0.4l0.8-1.6
				c-2.6-1.7-6-3-9.6-3.7l0,0l0,0c-0.5-0.1-1.1-0.2-1.7-0.3h0l0,0C60,0.1,58.4,0,56.7,0c-0.4,0-0.8,0-1.2,0c-4,0.2-7.4,1.2-9.9,2.9
				c-3.1,2.1-4.8,5.3-4.8,9.2c0,0.9,0.1,1.6,0.2,2.4c1.3,6.1,7.7,7.7,12.7,8.9c3.5,0.9,6.4,1.5,6.4,3.4c0,1.3-1.2,1.9-3,1.9
				c-1.4,0-3.1-0.3-4.9-0.9l0,0l0,0c-3.3-1-6.8-2.8-9.3-4.9l-4.6,9.2c3,2.3,6.7,3.9,10.7,4.9l0,0l0,0c1.8,0.4,3.6,0.8,5.3,0.9v0
				c0.9,0.1,1.8,0.1,2.6,0.1c8.4,0,15.7-3.7,15.7-12c0-3.7-1.5-6.2-3.6-7.9c-3.4-2.8-8.5-3.6-12-4.7l0,0l0,0
				c-2.2-0.6-3.7-1.4-3.7-2.7C53.4,9.8,54.3,9.4,55.7,9.4"/>
			<polygon id="Fill-6" class="st3" points="100,28.4 98.4,28.4 88.2,28.4 88.2,23.8 97.3,23.8 97.8,23.8 105.6,23.8 105.6,14.5 
				94.9,14.5 88.2,14.5 88.2,9.9 93.7,9.9 104.9,9.9 107.4,9.9 107.4,0.5 91.3,0.5 82.3,0.5 75.9,0.5 75.9,6.5 75.9,9.1 75.9,9.2 
				75.9,37.8 86.5,37.8 91.6,37.8 100.8,37.8 107.9,37.8 107.9,34.1 107.9,30.6 107.9,28.4 104.6,28.4 			"/>
			<path id="Fill-8" class="st3" d="M130.6,18.8h-5.7v-6.5V9.9h2l0,0l0,0h3.7c2.4,0,3.8,1.3,4.1,3.5h0c0,0.3,0.1,0.6,0.1,0.9
				C134.8,17.1,133.2,18.8,130.6,18.8z M141,26.4l-0.5-0.8c3.6-2.2,5.6-6,5.9-10.9h0c0-0.3,0-0.6,0-0.9c0-5.9-2.8-10.1-8-12l0,0l0,0
				c-2.2-0.9-4.9-1.3-7.9-1.3h-18v10.3l0,0v9V33v0.8v4h6h6.3v-7.7v-2h4.6l0.4,0.9l4.1,8.8h13.9L141,26.4z"/>
			<polygon id="Fill-10" class="st4" points="200.8,0.6 197.1,12.4 194.6,20.4 190.7,32.9 186.4,19.4 180.5,0.6 176.2,0.6 
				170.9,17.6 166.1,32.9 160.9,16.5 155.9,0.6 151.3,0.6 156.5,15.9 163.8,37.8 168.1,37.8 174.5,18 178.3,6.4 182.3,19 
				188.3,37.8 192.7,37.8 198.4,20.8 200,16 205.2,0.6 			"/>
			<polygon id="Fill-12" class="st4" points="267,0.6 258.1,15.1 255.1,20 253.5,17.5 247.4,7.6 243,0.6 238.6,0.6 244.1,10.1 
				249.6,19.5 253,25.2 253,27.2 253,37.8 257.2,37.8 257.2,27.7 257.2,25 265,11.5 271.3,0.6 			"/>
			<polyline id="Fill-14" class="st4" points="225.5,24.3 213.3,24.3 214,22.7 221.6,5.4 228.9,21.7 229,21.9 229.6,23.4 
				230.5,20.5 230.7,19.9 231.5,17.4 224,0.6 219.6,0.6 209.9,22.2 208.2,25.9 202.9,37.8 207.4,37.8 211.1,29.3 211.5,28.4 
				220.2,28.4 223.2,28.4 231.8,28.4 232,28.7 236,37.8 240.6,37.8 236.4,28.4 235.7,26.7 234.9,25.1 234.6,24.3 230,24.3 
				227.9,24.3 			"/>
		</g>
	</g>
</g>
</svg>
