<svg id="Layer_1" data-name="Layer 1" xmlns="http://www.w3.org/2000/svg" viewBox="0 0 600 400"><defs><style>.cls-1{fill:#005c76;}</style></defs><title>revinate-logo-Artboard 1 copy 9</title><path class="cls-1" d="M39.09,186.84h.3L47,208.52H31.57l7.52-21.68m9.24,49.79h28.8v-3.28c-5.57-.7-7.27-1.13-10.91-11.06-4-10.64-8.63-23.2-13-35.61l-6.93-19.55-5.17,1.42L19.84,222.62c-3.68,9.47-5.05,10-11.34,10.73v3.28H32.2v-3.28l-2.6-.3c-4.86-.54-5.05-1.66-3.51-7,1.37-4.56,2.74-9.17,4-12.24H48.76c1.59,3.86,3.59,9.36,5,12.85,1.78,4.53,1.24,5.69-2.63,6.25l-2.75.4Z"/><path class="cls-1" d="M107.25,200.06c0-3.84-.51-4.52-3.24-5l-3.26-.52v-3.06c5.27-.26,14.41-1.29,19.36-2v35.74c0,4.36.42,5.53,3.77,5.53h3.27v3.25a187.68,187.68,0,0,0-19.07,3.9l-.83-.72v-6.74c-2,1.47-3.76,2.81-6.08,4.23-3.25,2-5.9,3.08-9.21,3.08-8.78,0-13.62-5.84-13.62-13.91V200.06c0-3.84-.51-4.52-3.23-5l-2.85-.52v-3.06c4.84-.26,13.46-1.29,18.95-2v31.74c0,6.18,3.14,8.61,7.1,8.61,3,0,5.88-1.38,8.94-4V200.06"/><path class="cls-1" d="M146,221.13c0,8.06,4,9.57,5.89,9.57a11.19,11.19,0,0,0,5.48-1.69l1.45,3.15-9.05,4.56a10.67,10.67,0,0,1-4,1.1c-8.12,0-12.64-3.53-12.64-12.88V195.73h-6.74l-.74-1.34,3.38-4h4.1v-6.42l11-8.3,1.82.88v13.84h10.41c1.36,1.15,1.16,4.51-.73,5.37H146v25.4"/><path class="cls-1" d="M180.07,195.86c3.55-3.51,8.87-6.73,14.37-6.73,9.56,0,14.84,6,14.84,15.9v21.32c0,5.89.53,6.3,6.34,7v3.28h-24.7v-3.28c5.09-.7,5.5-1.11,5.5-7V206.19c0-6.51-3.64-9.27-8-9.27a11.63,11.63,0,0,0-8.33,3.46v26c0,5.89.51,6.3,4.89,7v3.28H159.64v-3.28c7-.7,7.56-1.11,7.56-7V175.54c0-6.22-.2-6.37-6.86-6.78v-3c4.66-.72,12.76-2.23,19.73-3.7v33.83"/><path class="cls-1" d="M231.87,210.43c0-11.38,4.46-17,8.76-17,6.72,0,10.76,8.11,10.76,22.15,0,15.22-4.72,17.83-8.54,17.83-6.76,0-11-9.8-11-23m10.35-21.3c-11.82,0-24.87,8.85-24.87,25.53,0,11.25,8.11,23.16,24.32,23.16,12.12,0,24.23-8.23,24.23-25.39C265.9,200.2,256.85,189.13,242.22,189.13Z"/><path class="cls-1" d="M288.42,226.35c0,5.87.51,6.3,8.61,7v3.28H268.39v-3.28c6.61-.7,7.15-1.13,7.15-7V203c0-6.42-.2-6.5-7-7.26v-2.84c6.15-.87,12.88-2.27,19.84-3.79v10.45h.21a43,43,0,0,1,4.91-6.73c2-2.13,4.33-3.72,7-3.72,4,0,7.06,2.92,7.06,6.42a8.05,8.05,0,0,1-5,7.47,3.07,3.07,0,0,1-3.25-.43,8.73,8.73,0,0,0-5.25-2.21c-1.78,0-3.89.8-5.66,5.18v20.79"/><path class="cls-1" d="M315.85,203c0-6.42-.2-6.5-6.93-7.26v-2.84c6.18-.87,13.15-2.27,19.8-3.79v37.09c0,6,.53,6.43,7.22,7.13v3.28H308.61v-3.28c6.73-.7,7.24-1.13,7.24-7.13V203M329,172.53a7.53,7.53,0,0,1-7.64,7.59,7.62,7.62,0,1,1,0-15.24A7.57,7.57,0,0,1,329,172.53Z"/><path class="cls-1" d="M377.78,190.34l.93,1.51-24.19,40.31h8.32c7.24,0,10.06-1.32,13.59-7.3l1.55-2.61,3.78,1.4c-1.88,5.23-3.24,9.13-4.84,13H339l-1.05-1.54,24.94-40.29h-7.39c-6.95,0-8.82,1.59-11.23,6.78l-1.5,3.22L339,203.39c1.24-4,2.9-10.65,3.88-15.25h2.33c.53,1.54,1.67,2.2,5.67,2.2h26.95"/><path class="cls-1" d="M393.92,206.55c.62-7.14,4.52-12.6,8.4-12.6s7.36,5.52,7.36,9.79c0,2-.41,2.48-2,2.48l-13.79.33m26.1,17.9c-4.23,2.84-7.5,4.07-11.38,4.07-8,0-15.18-5.44-15.18-17.23,10.45-.41,24.46-1.39,25.92-1.69,2.1-.41,2.41-.64,2.41-4.58,0-8.14-7.28-15.86-16.4-15.86-12.83,0-24.17,11.3-24.17,26.46,0,11.79,8.17,22.2,22.37,22.2,3.67,0,11.89-2.12,17.89-11.28Z"/><path class="cls-1" d="M425.18,229.58a8,8,0,1,1,8,8.24c-4.5,0-8-3.32-8-8.24"/><path class="cls-1" d="M509.1,237.39h-6.41l-41.8-51.32h-.23v21.79a156,156,0,0,0,1,20.17c.56,3.64,3.18,5,10.17,5.32v3.28H445.75v-3.28c5.27-.2,7.79-1.68,8.28-5.32a138.38,138.38,0,0,0,1.1-20.17V187c0-6.7,0-9.3-1.91-11.79s-4.64-3.22-8.94-3.57v-3.31h18.3l40.72,47.37h.22V197.11a148,148,0,0,0-1-20.14c-.52-3.71-3.17-5-10.14-5.35v-3.31h26.11v3.31c-5.28.2-7.77,1.64-8.31,5.35a153,153,0,0,0-1,20.14v40.28"/><path class="cls-1" d="M525.36,206.55c.6-7.14,4.51-12.6,8.38-12.6s7.35,5.52,7.35,9.79c0,2-.38,2.48-2,2.48l-13.74.33m26.1,17.9c-4.25,2.84-7.49,4.07-11.42,4.07-8,0-15.12-5.44-15.12-17.23,10.41-.41,24.41-1.39,25.88-1.69,2.1-.41,2.41-.64,2.41-4.58,0-8.14-7.24-15.86-16.4-15.86-12.83,0-24.2,11.3-24.2,26.46,0,11.79,8.21,22.2,22.38,22.2,3.71,0,11.92-2.12,17.91-11.28Z"/><path class="cls-1" d="M573.7,221.13c0,8.06,4,9.57,5.9,9.57A11.08,11.08,0,0,0,585,229l1.47,3.15-9,4.56a10.53,10.53,0,0,1-4,1.1c-8.08,0-12.68-3.53-12.68-12.88V195.73h-6.68l-.74-1.34,3.38-4h4v-6.42l11.1-8.3,1.81.88v13.84h10.4c1.37,1.15,1.13,4.51-.74,5.37H573.7v25.4"/><path class="cls-1" d="M586.2,186.52a5.22,5.22,0,0,1-2.59-.68,5.31,5.31,0,0,1-2-7.25,5.12,5.12,0,0,1,2-1.94,5.29,5.29,0,0,1,5.26,0,5.09,5.09,0,0,1,1.94,1.94,5.15,5.15,0,0,1,.72,2.65,5.35,5.35,0,0,1-2.68,4.6,5.33,5.33,0,0,1-2.62.68m0-.8a4.52,4.52,0,0,0,3.88-2.21,4.27,4.27,0,0,0,.61-2.27,4.65,4.65,0,0,0-.58-2.25,4.43,4.43,0,0,0-1.66-1.64,4.52,4.52,0,0,0-2.25-.6,4.34,4.34,0,0,0-2.21.6,4.16,4.16,0,0,0-1.66,1.64,4.57,4.57,0,0,0-.6,2.25,4.46,4.46,0,0,0,.61,2.27,4.55,4.55,0,0,0,1.66,1.63A4.39,4.39,0,0,0,586.2,185.72Zm-1-1.33h-1V178h2.06a2.33,2.33,0,0,1,1.14.22,1.55,1.55,0,0,1,.61.63,2.11,2.11,0,0,1,.21.89,2,2,0,0,1-1.23,1.86,2.63,2.63,0,0,1,.72.92l1,1.88h-1.15l-.84-1.58-.2-.4c-.24-.43-.41-.64-.52-.64h-.75Zm0-3.4h.69a1.1,1.1,0,0,0,1-.38,1.37,1.37,0,0,0,.27-.82,1.15,1.15,0,0,0-.1-.5,1,1,0,0,0-.32-.37,1.41,1.41,0,0,0-.75-.15h-.75Z"/></svg>